<?xml version="1.0" standalone="no"?>
<!DOCTYPE svg PUBLIC "-//W3C//DTD SVG 1.1//EN" "http://www.w3.org/Graphics/SVG/1.1/DTD/svg11.dtd" >
<svg xmlns="http://www.w3.org/2000/svg">
<metadata></metadata>
<defs>
<font id="mrseavessmallcapsregular" horiz-adv-x="687" >
<font-face units-per-em="2048" ascent="1638" descent="-410" />
<missing-glyph horiz-adv-x="477" />
<glyph horiz-adv-x="0" />
<glyph unicode="&#xd;" horiz-adv-x="477" />
<glyph unicode=" "  horiz-adv-x="477" />
<glyph unicode="&#x09;" horiz-adv-x="477" />
<glyph unicode="&#xa0;" horiz-adv-x="477" />
<glyph unicode="!" horiz-adv-x="640" d="M203 82q0 41 27.5 70t68.5 29t70 -29t29 -70t-29 -70t-70 -29t-68.5 29t-27.5 70zM203 1164q0 41 27.5 70t68.5 29t70 -29t29 -70q-24 -159 -44.5 -367t-20.5 -469h-68q0 282 -21 471t-41 365z" />
<glyph unicode="&#x22;" horiz-adv-x="843" d="M154 1164q0 41 27 70t68 29t70 -29t29 -70q-32 -80 -54 -162q-27 -96 -28 -196h-34q0 108 -24 194zM495 1164q0 41 27.5 70t68.5 29t69.5 -29t28.5 -70q-32 -80 -54 -162q-27 -96 -27 -196h-35q0 108 -23 194q-28 82 -55 164z" />
<glyph unicode="#" horiz-adv-x="890" d="M58 536l19 107h159l39 227h-159l19 108h159l42 251h82l-43 -251h217l43 251h82l-43 -251h161l-19 -108h-161l-39 -227h161l-19 -107h-161l-41 -251h-82l43 251h-218l-41 -251h-82l42 251h-160zM317 643h217l39 227h-216z" />
<glyph unicode="$" horiz-adv-x="1020" d="M116 237q0 26 18 38.5t30 12.5q17 0 93 -79t185 -95v466l-99 50q-90 46 -142 112q-61 79 -61 176q0 114 86 195.5t216 81.5v204h73v-208q123 -12 200 -66q68 -48 68 -101q0 -36 -37 -48q-22 -9 -109 74q-53 49 -122 59v-402l145 -74q90 -48 141 -119.5t51 -146.5 q0 -145 -98.5 -240t-238.5 -95v-203h-73v207q-143 14 -234.5 77.5t-91.5 123.5zM266 956q0 -114 176 -210v367q-72 -7 -124 -50.5t-52 -106.5zM515 111q90 0 150 58t60 152q0 61 -57 116.5t-153 103.5v-430z" />
<glyph unicode="%" horiz-adv-x="1561" d="M119 969q0 121 90 207.5t216 86.5t215.5 -86.5t89.5 -207.5t-89.5 -207t-215.5 -86t-216 86t-90 207zM256 969q0 -97 42.5 -161t126.5 -64t126.5 62t42.5 163q0 97 -42.5 161.5t-126.5 64.5t-126.5 -62.5t-42.5 -163.5zM352 0l785 1266l73 -37l-785 -1265zM831 261 q0 121 89.5 207.5t216.5 86.5q126 0 215.5 -86.5t89.5 -207.5t-89.5 -207t-215.5 -86t-216 86t-90 207zM968 261q0 -97 42.5 -161t126.5 -64t126.5 62t42.5 163q0 97 -43 161t-126 64q-84 0 -126.5 -62t-42.5 -163z" />
<glyph unicode="&#x26;" horiz-adv-x="1344" d="M128 324q0 113 68 200q51 67 166 138q-55 85 -84 161t-29 145q0 126 100 210.5t243 84.5q121 0 206.5 -65.5t85.5 -170.5q0 -131 -176 -242q-97 -60 -193 -118q53 -79 140 -181q65 -77 195 -220q22 63 28 112.5t6 75.5q0 68 -40 93.5t-146 25.5v43h463v-43 q-123 0 -160 -35.5t-51.5 -144t-48.5 -183.5q67 -77 125 -116q67 -46 123 -46q31 0 63 16t70 54l34 -34q-39 -55 -97 -86.5t-110 -31.5q-79 0 -146 37q-57 31 -125 99q-55 -67 -130 -101.5t-176 -34.5q-160 0 -274 87q-130 99 -130 271zM276 307q0 -104 78 -183.5t196 -79.5 q77 0 136 28.5t102 81.5q-123 130 -206 225q-106 121 -169 208q-63 -55 -96 -113q-41 -73 -41 -167zM398 1002q-1 -130 78 -272q142 80 191 127q85 79 86 170q0 68 -44.5 112.5t-116.5 44.5q-90 0 -147 -61q-48 -53 -47 -121z" />
<glyph unicode="'" horiz-adv-x="501" d="M154 1164q0 41 27 70t68 29t70 -29t29 -70q-32 -80 -54 -162q-27 -96 -28 -196h-34q0 108 -24 194z" />
<glyph unicode="(" horiz-adv-x="733" d="M171 604q0 246 131 466q113 189 326 365l48 -42q-97 -109 -145 -174q-94 -128 -149 -265q-70 -174 -70 -350q0 -253 139 -491q73 -126 225 -297l-46 -43q-213 176 -326 364q-133 222 -133 467z" />
<glyph unicode=")" horiz-adv-x="733" d="M58 -184q97 109 145 174q94 128 149 264q70 174 70 350q0 253 -139 492q-73 126 -225 297l48 42q215 -177 326 -363q131 -221 131 -468q0 -246 -131 -466q-113 -188 -328 -365z" />
<glyph unicode="*" horiz-adv-x="832" d="M73 736q0 55 50 85q14 9 95 14.5t161 45.5q-87 43 -163 46t-93 13q-49 29 -50 86q0 27 12 46q31 49 87 49q24 0 48 -13q38 -55 75.5 -103.5t102.5 -91.5q0 75 -24 135q-27 58 -53 116q0 41 27 70t68 29t70 -29t29 -70q-31 -60 -52 -114q-27 -65 -28 -139 q63 43 101.5 92.5t77.5 100.5q24 15 52 16q53 0 82 -48q12 -22 11 -48q0 -58 -47 -87q-15 -9 -92 -11.5t-166 -44.5q85 -41 162 -43.5t97.5 -14.5t33 -35t12.5 -51q0 -26 -11 -48q-29 -48 -84 -47q-26 0 -50 15q-41 53 -76 99q-41 53 -105 94q0 -77 26.5 -136t55.5 -117 q0 -41 -29 -70t-70 -29t-68 29t-27 70q29 58 53 117t24 134q-63 -41 -101.5 -92t-76.5 -102q-20 -14 -49 -14q-55 0 -86 49q-12 22 -12 47z" />
<glyph unicode="+" horiz-adv-x="938" d="M102 408v90h321v321h91v-321h322v-90h-322v-323h-91v323h-321z" />
<glyph unicode="," horiz-adv-x="640" d="M198 -222q58 60 83.5 108t34.5 111l-17 -2q-41 0 -68.5 29t-27.5 70t27.5 70t68.5 29q44 0 77.5 -33.5t33.5 -96.5q0 -73 -46 -157q-53 -96 -142 -152z" />
<glyph unicode="-" horiz-adv-x="938" d="M171 408v90h597v-90h-597z" />
<glyph unicode="." horiz-adv-x="640" d="M203 90q0 44 33.5 76t79.5 32q48 0 82 -31t34 -77q0 -43 -34 -75t-82 -32t-80.5 30.5t-32.5 76.5z" />
<glyph unicode="/" horiz-adv-x="370" d="M-244 0l785 1266l73 -37l-785 -1265z" />
<glyph unicode="0" horiz-adv-x="955" d="M128 444q0 198 102.5 338t247.5 140t247.5 -140t102.5 -338t-102.5 -338t-247.5 -140t-247.5 140t-102.5 338zM276 444q0 -179 50.5 -290t151.5 -111q99 0 150 112.5t51 288.5q0 179 -48 285q-53 116 -153 116q-99 0 -150.5 -112.5t-51.5 -288.5z" />
<glyph unicode="1" horiz-adv-x="955" d="M208 817v43l342 68v-646q0 -154 29 -196.5t133 -42.5v-43h-470v43q102 0 132 43.5t30 195.5v314q0 147 -40 187q-34 34 -156 34z" />
<glyph unicode="2" horiz-adv-x="955" d="M121 660q0 104 86 180q92 82 237 82q138 0 239.5 -76t101.5 -199q0 -102 -82 -205q-27 -34 -83 -82l-277 -241h468l-23 -119h-645v49l374 335q126 113 126 232q0 109 -58 164t-155 55q-68 0 -124.5 -51.5t-56.5 -128.5q0 -61 45 -128l-64 -63q-55 38 -82 90t-27 106z" />
<glyph unicode="3" horiz-adv-x="955" d="M147 613l48 274h599v-56l-234 -273q109 -31 180.5 -112.5t71.5 -179.5q0 -125 -99.5 -212.5t-251.5 -87.5q-135 0 -229 66q-80 56 -80 115q0 48 55 48q19 0 80 -72t174 -72q102 0 154 60.5t52 154.5q0 79 -48 141t-127 74q-9 -10 -22 -28t-26 -42q-24 -41 -57 -41 q-19 0 -31.5 11.5t-12.5 28.5q0 26 19 46l276 312h-247q-75 0 -124 -24.5t-64 -89.5l-10 -41h-46z" />
<glyph unicode="4" horiz-adv-x="955" d="M70 263v39l486 647h55v-611q73 0 106 27q39 32 63 128l10 41h43l-17 -271h-205q0 -140 30 -180t132 -40v-43h-469v43q102 0 132 40t30 180h-396zM184 338h282v374z" />
<glyph unicode="5" horiz-adv-x="955" d="M145 145q0 49 58 50q19 0 72 -72t165 -72q104 0 164 66.5t60 165.5q0 102 -50 166q-55 68 -157 68q-67 0 -124 -39t-74 -109h-80l53 518h531l-21 -119h-440l-24 -236q36 32 89 51t107 19q143 0 239 -92t96 -227q0 -131 -108.5 -224t-260.5 -93q-131 0 -220 65 q-75 55 -75 114z" />
<glyph unicode="6" horiz-adv-x="955" d="M154 391q0 208 95 362q106 169 272 169q96 0 163 -43t67 -89q0 -24 -22 -39q-12 -7 -22 -7q-17 0 -69.5 50.5t-115.5 50.5q-102 0 -165 -118q-56 -106 -57 -254q26 27 78 47.5t105 20.5q128 0 226 -84.5t98 -202.5q0 -119 -91 -203.5t-219 -84.5q-123 0 -215 80 q-128 113 -128 345zM295 365q0 -152 63 -242q58 -82 139 -82q82 0 128 70q39 59 39 143q0 80 -46 140q-51 67 -135 67q-67 0 -120.5 -26.5t-67.5 -69.5z" />
<glyph unicode="7" horiz-adv-x="955" d="M119 613l48 274h676v-56l-394 -783q-24 -48 -39 -67q-22 -27 -52 -27q-7 0 -24 3.5t-31.5 21.5t-14.5 43q0 15 8 35t16 33l432 678h-380q-75 0 -124 -24.5t-64 -89.5l-10 -41h-47z" />
<glyph unicode="8" horiz-adv-x="955" d="M140 220q0 77 41 133q51 70 183 127q-80 49 -122 92q-56 58 -56 123q0 96 87 161.5t205 65.5t205 -61.5t87 -148.5q0 -68 -63 -125q-48 -43 -139 -82q119 -56 169 -101q79 -70 79 -167q0 -116 -99 -193.5t-239 -77.5q-137 0 -237.5 76.5t-100.5 177.5zM278 222 q0 -79 53 -129t147 -50t147.5 48.5t53.5 121.5q0 75 -80 135q-32 24 -167 94q-75 -41 -108 -82q-46 -56 -46 -138zM324 719q0 -55 58 -105q41 -34 120 -76q56 31 90 71q41 50 41 110q0 53 -43.5 89.5t-111.5 36.5q-67 0 -110.5 -37t-43.5 -89z" />
<glyph unicode="9" horiz-adv-x="955" d="M150 633q0 119 91.5 204t219.5 85q123 0 215 -81q128 -112 128 -344q0 -208 -96 -362q-106 -169 -271 -169q-96 0 -163 42.5t-67 88.5q0 24 22 40q12 7 22 6q17 0 69 -50t115 -50q102 0 166 117q56 106 56 255q-26 -27 -78 -48t-105 -21q-128 0 -226 84.5t-98 202.5z M294 633q0 -80 48.5 -143t131.5 -63q67 0 120.5 26t67.5 69q0 152 -60.5 238.5t-140.5 86.5q-82 0 -128 -70q-39 -60 -39 -144z" />
<glyph unicode=":" horiz-adv-x="686" d="M246 82q0 41 27 70t68 29t70 -29t29 -70t-29 -70t-70 -29t-68 29t-27 70zM246 471q0 41 27 70t68 29t70 -29t29 -70t-29 -70t-70 -29t-68 29t-27 70z" />
<glyph unicode=";" horiz-adv-x="686" d="M241 -234q58 60 83 108t34 111l-17 -2q-41 0 -68 29t-27 70t27 70t68 29q44 0 77.5 -33.5t33.5 -96.5q0 -73 -46 -157q-53 -96 -141 -152zM246 471q0 41 27 70t68 29t70 -29t29 -70t-29 -70t-70 -29t-68 29t-27 70z" />
<glyph unicode="&#x3c;" horiz-adv-x="1024" d="M171 548l674 445l31 -36l-477 -409l477 -408l-31 -38z" />
<glyph unicode="=" horiz-adv-x="938" d="M171 273v91h597v-91h-597zM171 529v91h597v-91h-597z" />
<glyph unicode="&#x3e;" horiz-adv-x="1024" d="M148 140l477 408l-477 409l31 36l674 -445l-674 -446z" />
<glyph unicode="?" horiz-adv-x="1032" d="M150 1026q0 97 97.5 167t245.5 70q177 0 302 -91q135 -97 135 -256q0 -160 -109 -262q-75 -70 -205 -110q-80 -24 -111 -23v-193h-90v336q154 0 256 61q123 73 123 215q0 118 -93 188t-225 70q-108 0 -173.5 -42.5t-65.5 -95.5q0 -24 20.5 -38.5t68.5 -14.5q34 0 58 -22 t24 -58q0 -44 -38 -70q-31 -20 -66 -21q-58 0 -103 50q-51 56 -51 140zM365 82q0 41 27.5 70t68.5 29t70 -29t29 -70t-29 -70t-70 -29t-68.5 29t-27.5 70z" />
<glyph unicode="@" horiz-adv-x="1448" d="M80 563q0 295 211.5 507t508.5 212q246 0 409 -149.5t163 -390.5q0 -195 -123 -349t-257 -154q-56 0 -91.5 30t-45.5 76q-32 -46 -92 -79.5t-109 -33.5q-106 0 -164 77t-58 203q0 27 1.5 43.5t6.5 52.5q29 155 139 265t240 110q68 0 132 -34h114l-90 -514q-5 -26 -6 -48 q0 -75 70 -75q85 0 173 127q94 137 94 300q0 213 -144 343q-133 119 -331 119q-256 0 -436 -188.5t-180 -442.5q0 -256 150 -409.5t393 -153.5q118 0 224.5 33t208.5 98l22 -37q-119 -85 -237.5 -124.5t-234.5 -39.5q-276 0 -468.5 180t-192.5 446zM561 500q0 -84 32.5 -135 t95.5 -51q60 0 114 53.5t69 135.5l63 362q-20 24 -44 36q-34 17 -82 17q-85 0 -150 -90.5t-87 -219.5q-10 -56 -11 -108z" />
<glyph unicode="A" horiz-adv-x="1262" d="M-77 0v43q142 0 185 58q17 22 59 121l451 1041h27l452 -1041q51 -118 82 -143q43 -36 162 -36v-43h-568v43q181 0 181 80q0 31 -20 75l-99 229h-495l-99 -229q-19 -46 -19 -73q0 -82 179 -82v-43h-478zM372 502h428l-215 493z" />
<glyph unicode="B" horiz-adv-x="1225" d="M77 0v43q128 0 162 41.5t34 197.5v665q0 154 -34 196.5t-162 42.5v43h551q189 0 295 -89q101 -84 101 -218q0 -77 -43.5 -144.5t-116.5 -110.5q119 -38 190.5 -124.5t71.5 -197.5q0 -150 -112 -244q-121 -101 -328 -101h-609zM435 314q0 -154 34 -196.5t162 -42.5h53 q126 0 193.5 76t67.5 194t-63 191q-70 80 -198 80h-249v-302zM435 691h183q111 0 168 64t57 167q0 101 -55 163q-60 68 -170 69h-183v-463z" />
<glyph unicode="C" horiz-adv-x="1416" d="M145 614q0 266 184.5 457.5t443.5 191.5q108 0 204 -44.5t178 -129.5q20 17 41 49.5t29 68.5h41v-451h-42q-43 201 -157.5 314t-284.5 113q-225 0 -345 -188q-101 -157 -101 -381t99 -378q121 -189 347 -190q169 0 284 113.5t158 313.5h42v-451h-41q-9 38 -28 70.5 t-42 47.5q-82 -84 -178 -129t-204 -45q-259 0 -443.5 189.5t-184.5 458.5z" />
<glyph unicode="D" horiz-adv-x="1460" d="M77 0v43q128 0 162 41.5t34 197.5v665q0 154 -34 196.5t-162 42.5v43h556q340 0 519 -179q164 -164 164 -436q0 -271 -162 -433q-179 -181 -521 -181h-556zM435 314q0 -155 33.5 -197t157.5 -42h9q271 0 392 179q92 135 93 360q0 222 -93 359q-123 181 -392 181h-200 v-840z" />
<glyph unicode="E" horiz-adv-x="1192" d="M77 0v43q128 0 162 41.5t34 197.5v665q0 154 -34 196.5t-162 42.5v43h935l17 -272h-43l-10 41q-22 90 -58 118q-48 38 -179 38h-304v-466h103q154 0 196.5 34t42.5 162h42v-468h-42q0 128 -42 162.5t-197 34.5h-103v-299q0 -154 34 -196.5t162 -42.5h176q133 0 179 36 q34 27 58 119l11 41h42l-17 -271h-1003z" />
<glyph unicode="F" horiz-adv-x="1097" d="M77 0v43q128 0 162 41.5t34 197.5v665q0 154 -34 196.5t-162 42.5v43h969l17 -272h-42l-11 41q-22 90 -58 118q-48 38 -179 38h-338v-466h103q154 0 196.5 34t42.5 162h42v-468h-42q0 128 -42 162.5t-197 34.5h-103v-331q0 -154 34 -196.5t162 -42.5v-43h-554z" />
<glyph unicode="G" horiz-adv-x="1484" d="M145 614q0 266 184.5 457.5t443.5 191.5q108 0 204 -44.5t178 -129.5q20 17 41 49.5t29 68.5h41v-451h-42q-41 201 -157 314t-287 113q-225 0 -347 -188q-101 -157 -100 -381q0 -229 100 -375q126 -186 386 -186q142 0 236 72q102 77 102 210q0 68 -43.5 99.5 t-149.5 31.5v43h538v-43q-128 0 -162 -42t-34 -197v-155q-99 0 -330 -72q-109 -34 -203 -34q-259 0 -443.5 189.5t-184.5 458.5z" />
<glyph unicode="H" horiz-adv-x="1566" d="M77 0v43q128 0 162 41.5t34 197.5v665q0 154 -34 196.5t-162 42.5v43h554v-43q-128 0 -162 -41.5t-34 -197.5v-258h697v258q0 154 -34.5 196.5t-162.5 42.5v43h555v-43q-128 0 -162 -41.5t-34 -197.5v-665q0 -154 34 -196.5t162 -42.5v-43h-555v43q128 0 162.5 41.5 t34.5 197.5v332h-697v-332q0 -154 34 -196.5t162 -42.5v-43h-554z" />
<glyph unicode="I" horiz-adv-x="708" d="M77 0v43q128 0 162 41.5t34 197.5v665q0 154 -34 196.5t-162 42.5v43h554v-43q-128 0 -162 -41.5t-34 -197.5v-665q0 -154 34 -196.5t162 -42.5v-43h-554z" />
<glyph unicode="J" horiz-adv-x="708" d="M-224 -263q0 29 20.5 49.5t51.5 20.5q29 0 49.5 -20.5t20.5 -49.5q0 -49 43 -91t116 -42q94 0 145 69t51 214v1060q0 154 -34 196.5t-162 42.5v43h554v-43q-128 0 -162 -41.5t-34 -197.5v-1037q0 -198 -118 -292q-92 -73 -238 -74q-108 0 -197 48q-106 56 -106 145z" />
<glyph unicode="K" horiz-adv-x="1495" d="M77 0v43q128 0 162 41.5t34 197.5v665q0 154 -34 196.5t-162 42.5v43h554v-43q-128 0 -162 -41.5t-34 -197.5v-287l420 359q102 89 102 128t-93 39v43h476v-43q-113 0 -193 -37q-70 -32 -183 -130l-358 -306l635 -551q56 -49 136 -84t128 -35v-43h-575v43q125 0 125 49 q0 27 -48 70l-517 449l-55 -44v-285q0 -154 34 -196.5t162 -42.5v-43h-554z" />
<glyph unicode="L" horiz-adv-x="1177" d="M77 0v43q128 0 162 41.5t34 197.5v665q0 154 -34 196.5t-162 42.5v43h554v-43q-128 0 -162 -41.5t-34 -197.5v-633q0 -154 34 -196.5t162 -42.5h245q133 0 179 36q34 27 58 119l10 41h43l-17 -271h-1072z" />
<glyph unicode="M" horiz-adv-x="1689" d="M77 0v43q128 0 162 41.5t34 197.5v665q0 154 -34 196.5t-162 42.5v43h350l433 -999l432 999h321v-43q-128 0 -162 -41.5t-34 -197.5v-665q0 -154 34 -196.5t162 -42.5v-43h-553v43q128 0 162 41.5t34 197.5v669l-427 -985h-27l-454 1046v-730q0 -154 34 -196.5t162 -42.5 v-43h-467z" />
<glyph unicode="N" horiz-adv-x="1484" d="M77 0v43q128 0 162 41.5t34 197.5v665q0 154 -34 196.5t-162 42.5v43h290l787 -975v693q0 154 -34.5 196.5t-162.5 42.5v43h468v-43q-128 0 -162 -41.5t-34 -197.5v-981h-48l-833 1029v-713q0 -154 34 -196.5t162 -42.5v-43h-467z" />
<glyph unicode="O" horiz-adv-x="1655" d="M145 614q0 268 200.5 458.5t482.5 190.5t482 -190.5t200 -458.5t-200.5 -458t-481.5 -190q-282 0 -482.5 190t-200.5 458zM451 236q133 -189 377 -190q242 0 375 188q113 159 113 380q0 222 -111 379q-133 190 -377 190q-242 0 -376 -188q-112 -158 -112 -377 q0 -226 111 -382z" />
<glyph unicode="P" horiz-adv-x="1105" d="M77 0v43q128 0 162 41.5t34 197.5v665q0 154 -34 196.5t-162 42.5v43h541q208 0 327 -101q113 -94 113 -246q0 -150 -113 -244q-120 -100 -323 -100h-4h-183v-256q0 -154 34 -196.5t162 -42.5v-43h-554zM435 613h181q126 0 193.5 76t67.5 193q0 118 -63 191 q-70 80 -198 81h-181v-541z" />
<glyph unicode="Q" horiz-adv-x="1655" d="M145 614q0 268 200.5 458.5t482.5 190.5t482 -190.5t200 -458.5q0 -254 -177.5 -435t-436.5 -210q-67 -7 -142 -36.5t-129 -79.5q29 7 65.5 10.5t67.5 3.5q126 0 249 -58q99 -55 206.5 -112t204.5 -57q138 0 221 47t134 151l33 -15q-44 -131 -140 -224 q-123 -118 -285 -118q-109 0 -244 84q-111 79 -221 155q-123 84 -204 84q-114 0 -169 -65q-60 -72 -77 -74q-27 -3 -47.5 16t-20.5 51q0 49 90 123q99 80 229 119q-251 43 -411.5 222t-160.5 418zM333 614q0 -220 114 -378q137 -189 381 -190q244 0 379 188q116 160 116 380 t-115 379q-136 190 -380 190t-379 -188q-116 -160 -116 -381z" />
<glyph unicode="R" horiz-adv-x="1269" d="M77 0v43q128 0 162 41.5t34 197.5v665q0 154 -34 196.5t-162 42.5v43h541q208 0 327 -101q113 -94 113 -246q0 -135 -97 -230.5t-266 -112.5l199 -235q96 -114 193 -181.5t190 -79.5v-43h-338l-407 538h-97v-256q0 -154 34 -196.5t162 -42.5v-43h-554zM435 613h181 q126 0 193.5 76t67.5 193q0 118 -63 191q-70 80 -198 81h-181v-541z" />
<glyph unicode="S" horiz-adv-x="1020" d="M118 -34v450h42q7 -48 14 -95q27 -108 99 -178q99 -97 265 -97q111 0 183.5 64t72.5 161q0 68 -65 133q-58 58 -171 117l-196 100q-97 49 -157 132q-70 96 -70 206q0 128 96.5 216t242.5 88q84 0 147 -24q49 -19 104 -60q20 19 36 40.5t22 53.5h41v-450h-42 q0 145 -67 240q-82 118 -246 118q-87 0 -143 -51t-56 -132q0 -75 58 -131q49 -48 191 -121l196 -101q111 -56 166 -143q48 -75 47 -167q0 -164 -113.5 -266.5t-276.5 -102.5q-75 0 -151 25q-85 34 -169 70q-20 -17 -34 -37q-19 -27 -25 -58h-41z" />
<glyph unicode="T" horiz-adv-x="1312" d="M17 952l17 277h1244l17 -277h-42l-11 41q-22 90 -58 118q-48 38 -179 38h-268v-867q0 -154 34.5 -196.5t162.5 -42.5v-43h-555v43q128 0 162 41.5t34 197.5v867h-268q-133 0 -179 -36q-34 -27 -58 -120l-10 -41h-43z" />
<glyph unicode="U" horiz-adv-x="1466" d="M46 1186v43h555v-43q-128 0 -162.5 -41.5t-34.5 -197.5v-502q0 -191 103 -291q97 -96 258 -96q169 0 268 94q108 102 107 293v502q0 154 -34 196.5t-162 42.5v43h479v-43q-128 0 -162 -41.5t-34 -197.5v-490q0 -232 -145 -367q-134 -124 -345 -124h-3q-213 0 -348 124 q-143 133 -144 367v490q0 154 -34 196.5t-162 42.5z" />
<glyph unicode="V" horiz-adv-x="1262" d="M-79 1186v43h569v-43q-181 0 -181 -80q0 -31 20 -75l349 -797l344 797q19 46 19 73q0 82 -179 82v43h478v-43q-142 0 -185 -58q-17 -22 -59 -121l-451 -1041h-27l-452 1041q-51 118 -82 143q-43 36 -163 36z" />
<glyph unicode="W" horiz-adv-x="1624" d="M-87 1186v43h573v-43q-96 0 -135 -18.5t-39 -64.5q0 -26 14 -72l224 -707l286 905h29l287 -903l224 705q12 38 12 70q0 44 -36 64.5t-120 20.5v43h461v-43q-121 0 -169 -37q-39 -32 -75 -142l-331 -1041h-27l-287 906l-289 -906h-27l-331 1041q-38 118 -78 148.5 t-166 30.5z" />
<glyph unicode="X" horiz-adv-x="1257" d="M-43 0v43q97 0 176 56q51 38 120 123l300 387l-268 398q-61 87 -121 128q-75 51 -174 51v43h582v-43q-77 0 -112 -17t-35 -49q0 -38 38 -89l194 -289l224 289q42 52 42 88q0 34 -35.5 50.5t-116.5 16.5v43h487v-43q-113 0 -179 -49q-36 -27 -116 -130l-260 -335l306 -450 q67 -96 123 -133q68 -46 172 -46v-43h-584v43q79 0 114 16t35 49q0 36 -40 90l-228 341l-266 -341q-19 -24 -28.5 -44.5t-9.5 -39.5q0 -34 35 -52.5t112 -18.5v-43h-487z" />
<glyph unicode="Y" horiz-adv-x="1280" d="M-77 1186v43h582v-43q-77 0 -112 -16t-35 -49q0 -20 16 -51q9 -17 22 -39l293 -452l299 452q43 65 43 97q0 58 -152 58v43h478v-43q-142 0 -212 -68q-29 -27 -83 -111l-340 -512v-213q0 -154 34 -196.5t162 -42.5v-43h-554v43q128 0 162 41.5t34 197.5v199l-342 526 q-67 102 -128 140.5t-167 38.5z" />
<glyph unicode="Z" horiz-adv-x="1177" d="M87 0v46l691 1108h-377q-133 0 -179 -36q-34 -27 -58 -120l-10 -41h-43l17 272h874v-26l-707 -1128h461q133 0 179 36q34 27 58 119l11 41h42l-17 -271h-942z" />
<glyph unicode="[" horiz-adv-x="733" d="M239 -179v1567h415v-65h-282v-1437h282v-65h-415z" />
<glyph unicode="\" horiz-adv-x="711" d="M-75 1229l73 37l785 -1266l-73 -36z" />
<glyph unicode="]" horiz-adv-x="733" d="M80 -114h282v1437h-282v65h415v-1567h-415v65z" />
<glyph unicode="^" horiz-adv-x="993" d="M85 691l412 572l411 -572l-38 -31l-373 374l-376 -374z" />
<glyph unicode="_" horiz-adv-x="733" d="M-2 0h738v-90h-738v90z" />
<glyph unicode="`" horiz-adv-x="827" d="M41 1169q0 31 17 45.5t41 14.5q22 0 41.5 -10.5t48.5 -37.5l192 -179l-11 -14l-281 120q-15 9 -29 22q-19 20 -19 39z" />
<glyph unicode="a" horiz-adv-x="1053" d="M7 0v43q92 0 125.5 29.5t84.5 149.5l302 700h27l302 -700q49 -116 84.5 -147.5t115.5 -31.5v-43h-459v43q77 0 107.5 12.5t30.5 48.5q0 31 -27 94l-41 96h-335l-41 -96q-15 -34 -22.5 -59.5t-7.5 -41.5q0 -31 30.5 -42.5t109.5 -11.5v-43h-386zM357 369h269l-134 312z " />
<glyph unicode="b" horiz-adv-x="1003" d="M94 0v41q102 0 132 43.5t30 195.5v328q0 154 -29 196.5t-133 42.5v40h230h202q140 0 217.5 -63t77.5 -164q0 -104 -89 -175q160 -70 161 -234q0 -111 -85.5 -181t-240.5 -70h-243h-230zM401 230q0 -102 21.5 -128.5t103.5 -26.5h39q82 0 126.5 49.5t44.5 124.5 q0 79 -41 125q-46 51 -130 51h-164v-195zM401 507h118q70 0 106.5 43.5t36.5 106.5q0 67 -34 108q-38 47 -106 47h-3h-118v-305z" />
<glyph unicode="c" horiz-adv-x="1058" d="M116 444q0 196 135.5 337t327.5 141q75 0 149 -37.5t122 -97.5q10 10 19.5 39t16.5 61h39v-355h-41q-31 147 -109.5 229t-195.5 82q-155 0 -234 -135q-63 -108 -63 -264q0 -159 61 -265q79 -135 236 -135q118 0 196 82t109 231h41v-357h-39q-5 26 -15.5 57.5t-20.5 43.5 q-46 -58 -122 -96.5t-149 -38.5q-189 0 -326 140t-137 338z" />
<glyph unicode="d" horiz-adv-x="1143" d="M94 0v41q102 0 132 43.5t30 195.5v328q0 154 -29 196.5t-133 42.5v40h433q249 0 381 -129q119 -118 119 -314t-117 -314q-131 -130 -383 -130h-433zM401 230q0 -102 19.5 -128.5t96.5 -26.5h17q181 0 263 123q61 92 61 246t-59 244q-81 124 -262 124h-3h-133v-582z" />
<glyph unicode="e" horiz-adv-x="972" d="M94 0v41q102 0 132 43.5t30 195.5v328q0 154 -29 196.5t-133 42.5v40h452h265l17 -247h-43l-10 41q-19 77 -56 101q-46 30 -173 30h-8h-137v-305h12q150 0 186 28t36 134h41v-399h-41q0 104 -37 133t-185 29h-12v-118q0 -154 29 -196.5t133 -42.5h24q133 0 176 26.5 t61 105.5l11 40h42l-17 -247h-766z" />
<glyph unicode="f" horiz-adv-x="890" d="M94 0v41q102 0 132 43.5t30 195.5v328q0 154 -29 196.5t-133 42.5v40h476h265l17 -247h-43l-10 41q-19 77 -57 101q-46 30 -173 30h-8h-160v-305h12q150 0 186 28t36 134h41v-399h-41q0 104 -37 133t-185 29h-12v-152q0 -154 29 -196.5t133 -42.5v-41h-469z" />
<glyph unicode="g" horiz-adv-x="1141" d="M116 444q0 196 135.5 337t327.5 141q75 0 149 -37.5t122 -97.5q10 10 19.5 39t16.5 61h39v-355h-41q-31 147 -109.5 229t-195.5 82q-155 0 -236 -135q-65 -109 -65 -264q0 -159 63 -265q80 -135 238 -135q89 0 169 46q92 53 92 128q0 58 -49 91.5t-127 33.5v41h452v-41 q-102 0 -132 -43.5t-30 -195.5v-61q-67 0 -194 -38.5t-181 -38.5q-189 0 -326 140t-137 338z" />
<glyph unicode="h" horiz-adv-x="1269" d="M94 0v41q102 0 132 43.5t30 195.5v328q0 154 -29 196.5t-133 42.5v40h469v-40q-102 0 -132 -44t-30 -195v-101h466v101q0 154 -29 196.5t-133 42.5v40h469v-40q-102 0 -132 -44t-30 -195v-328q0 -154 29 -196.5t133 -42.5v-41h-469v41q102 0 132 43.5t30 195.5v152h-466 v-152q0 -154 29 -196.5t133 -42.5v-41h-469z" />
<glyph unicode="i" horiz-adv-x="658" d="M94 0v41q102 0 132 43.5t30 195.5v328q0 154 -29 196.5t-133 42.5v40h469v-40q-102 0 -132 -44t-30 -195v-328q0 -154 29 -196.5t133 -42.5v-41h-469z" />
<glyph unicode="j" horiz-adv-x="658" d="M-138 -160q0 54 52 54h2q53 0 85.5 -80t109.5 -80q68 0 102 61q43 77 43 258v555q0 154 -29 196.5t-133 42.5v40h469v-40q-102 0 -132 -44t-30 -195v-555q0 -189 -92 -294q-82 -92 -208 -92q-106 0 -178 62q-61 53 -61 111z" />
<glyph unicode="k" horiz-adv-x="1169" d="M94 0v41q102 0 132 43.5t30 195.5v328q0 154 -29 196.5t-133 42.5v40h469v-40q-102 0 -132 -44t-30 -195v-132l249 213q111 96 111 128q0 27 -85 28v42h386v-42q-80 0 -141 -32.5t-194 -146.5l-176 -152l333 -292q125 -109 183 -144t112 -35v-43h-481v43q94 0 94 37 q0 34 -89 118l-249 232l-53 -44v-106q0 -154 29 -196.5t133 -42.5v-41h-469z" />
<glyph unicode="l" horiz-adv-x="906" d="M94 0v41q102 0 132 43.5t30 195.5v328q0 154 -29 196.5t-133 42.5v40h469v-40q-102 0 -132 -44t-30 -195v-294q0 -154 29 -196.5t133 -42.5h72q133 0 175.5 26.5t61.5 105.5l10 40h43l-14 -247h-817z" />
<glyph unicode="m" horiz-adv-x="1389" d="M94 0v41q102 0 132 43.5t30 195.5v328q0 154 -29 196.5t-133 42.5v40h307l306 -684l302 684h286v-40q-102 0 -132 -44t-30 -195v-328q0 -154 29 -196.5t133 -42.5v-41h-467v41q102 0 132 43.5t30 195.5v384l-311 -698h-27l-321 723v-409q0 -154 29 -196.5t133 -42.5v-41 h-399z" />
<glyph unicode="n" horiz-adv-x="1221" d="M94 0v41q102 0 132 43.5t30 195.5v328q0 154 -29 196.5t-133 42.5v40h252l545 -648v369q0 154 -29 196.5t-133 42.5v40h399v-40q-102 0 -132 -44t-30 -195v-640h-38l-597 713v-401q0 -154 29 -196.5t133 -42.5v-41h-399z" />
<glyph unicode="o" horiz-adv-x="1232" d="M116 444q0 196 147.5 337t352.5 141q207 0 353.5 -140t146.5 -338t-146.5 -338t-353.5 -140t-353.5 140t-146.5 338zM285 444q0 -157 73 -267q90 -133 258 -133q167 0 258 133q75 112 75 267q0 154 -75 264q-92 135 -258 135t-256 -133q-75 -111 -75 -266z" />
<glyph unicode="p" horiz-adv-x="885" d="M94 0v41q102 0 132 43.5t30 195.5v328q0 154 -29 196.5t-133 42.5v40h425q155 0 240.5 -69.5t85.5 -184.5q0 -111 -86.5 -181.5t-239.5 -70.5h-118v-101q0 -154 29 -196.5t133 -42.5v-41h-469zM401 456h116q84 0 126.5 49t42.5 128t-42.5 129t-126.5 50h-116v-356z" />
<glyph unicode="q" horiz-adv-x="1232" d="M116 444q0 196 147 336t353 140q207 0 353.5 -140t146.5 -336q0 -186 -129.5 -319.5t-319.5 -155.5q-29 -3 -93.5 -25.5t-95.5 -47.5q10 2 19 2h20q108 0 261.5 -84.5t228.5 -84.5q96 0 160.5 35t103.5 113l33 -17q-38 -108 -108 -174q-90 -85 -215 -85q-96 0 -252.5 121 t-221.5 121q-80 0 -119.5 -57t-52.5 -59q-27 -3 -46 14t-19 49q0 34 73 94q80 65 174 92q-179 39 -290 167t-111 301zM282 444q0 -157 75 -267q90 -133 259 -133q167 0 260 133q76 112 76 267q0 154 -76 264q-92 135 -260 135q-166 0 -258 -133q-77 -113 -76 -266z" />
<glyph unicode="r" horiz-adv-x="993" d="M94 0v41q102 0 132 43.5t30 195.5v328q0 154 -29 196.5t-133 42.5v40h425q155 0 240.5 -69.5t85.5 -184.5q0 -97 -66 -164.5t-182 -84.5l128 -152q68 -80 130 -126q75 -55 145 -65v-41h-263l-278 381h-58v-101q0 -154 29 -196.5t133 -42.5v-41h-469zM401 456h116 q84 0 126.5 49t42.5 128t-42.5 129t-126.5 50h-116v-356z" />
<glyph unicode="s" horiz-adv-x="814" d="M126 -34v351h41q12 -128 88 -200.5t194 -72.5q67 0 112 37t45 102q0 53 -41 95.5t-126 86.5l-140 72q-77 41 -123 104t-46 145q0 99 72.5 166.5t183.5 67.5q60 0 112 -19q41 -14 81 -43q12 12 20.5 26.5t11.5 37.5h39v-347h-41q-10 109 -56 179q-58 89 -159 89 q-61 0 -104 -31.5t-43 -86.5q0 -51 41 -90q34 -32 137 -85l138 -72q82 -41 121.5 -104t39.5 -128q0 -125 -84.5 -202.5t-207.5 -77.5q-72 0 -140 27q-43 17 -89 48q-14 -14 -22 -29q-14 -24 -17 -46h-38z" />
<glyph unicode="t" horiz-adv-x="950" d="M5 635l14 252h913l13 -252h-42l-10 41q-19 77 -57 101q-46 30 -173 30h-8h-105v-527q0 -154 29 -196.5t133 -42.5v-41h-470v41q102 0 132 43.5t30 195.5v527h-117q-133 0 -176 -29q-32 -22 -53 -102l-10 -41h-43z" />
<glyph unicode="u" horiz-adv-x="1174" d="M60 847v40h469v-40q-102 0 -132 -44t-30 -195v-291q0 -128 65 -193.5t176 -65.5q113 0 181.5 65.5t68.5 193.5v291q0 154 -29 196.5t-133 42.5v40h418v-40q-102 0 -132 -44t-30 -195v-277q0 -172 -107 -271q-101 -92 -260 -92q-155 0 -256 92q-108 99 -107 271v277 q0 154 -29 196.5t-133 42.5z" />
<glyph unicode="v" horiz-adv-x="1053" d="M12 845v42h459v-42q-77 0 -107.5 -13t-30.5 -49q0 -31 27 -94l208 -482l209 482q15 34 22.5 60t7.5 41q0 31 -30.5 43t-109.5 12v42h386v-42q-92 0 -125.5 -30t-84.5 -149l-302 -700h-27l-302 700q-49 116 -84.5 147.5t-115.5 31.5z" />
<glyph unicode="w" horiz-adv-x="1360" d="M7 845v42h454v-42q-68 0 -98 -15.5t-30 -56.5q0 -32 17 -84l136 -418l209 616h39l201 -616l142 418q7 22 13 47t6 41q0 38 -29 53t-99 15v42h385v-42q-97 0 -133.5 -31.5t-76.5 -147.5l-233 -700h-28l-208 640l-213 -640h-28l-226 700q-38 113 -74.5 146t-125.5 33z" />
<glyph unicode="x" horiz-adv-x="1049" d="M32 0v43q70 0 121.5 36.5t134.5 142.5l168 211l-162 233q-75 109 -120 141q-49 38 -128 38v42h459v-42q-106 0 -106 -46q0 -32 53 -110l98 -139l110 139q60 75 60 111q0 44 -112 45v42h385v-42q-75 0 -129 -41q-43 -32 -127 -138l-143 -180l186 -264 q75 -106 124.5 -142.5t122.5 -36.5v-43h-459v43q108 0 108 42q0 34 -55 113l-119 171l-137 -171q-56 -72 -56 -108q0 -47 105 -47h4v-43h-386z" />
<glyph unicode="y" horiz-adv-x="989" d="M-9 845v42h456v-42q-58 0 -84.5 -10.5t-26.5 -35.5q0 -34 51 -110l159 -235l159 235q27 41 41.5 69.5t14.5 45.5q0 41 -114 41v42h386v-42q-82 0 -131 -37.5t-120 -141.5l-202 -299v-87q0 -154 29 -196.5t133 -42.5v-41h-469v41q102 0 132 43.5t30 195.5v84l-203 302 q-73 108 -118.5 143.5t-122.5 35.5z" />
<glyph unicode="z" horiz-adv-x="911" d="M109 0v46l480 766h-176q-133 0 -179 -29q-39 -24 -58 -102l-10 -41h-43l14 247h651v-27l-491 -785h235q133 0 176 26.5t62 105.5l10 40h43l-14 -247h-700z" />
<glyph unicode="{" horiz-adv-x="733" d="M85 589v34q111 38 144 82q53 73 53 273q0 137 53 225q44 73 134 135q2 2 176 101l34 -43q-140 -96 -184 -157q-68 -94 -68 -256q0 -210 -52 -287q-41 -61 -162 -90q119 -29 161 -89q53 -80 53 -288q0 -160 68 -255q48 -65 184 -158l-34 -43q-162 92 -174 101 q-90 61 -135 135q-55 92 -54 225q0 198 -53 271q-32 46 -144 84z" />
<glyph unicode="|" horiz-adv-x="955" d="M208 1152v43l342 68v-981q0 -154 29 -196.5t133 -42.5v-43h-470v43q102 0 132 43.5t30 195.5v648q0 147 -40 188q-34 34 -156 34z" />
<glyph unicode="}" horiz-adv-x="733" d="M55 -184q140 96 184 157q68 94 68 256q0 210 51 286q41 61 163 91q-119 29 -161 89q-53 80 -53 288q0 160 -68 254q-48 65 -184 159l34 43q162 -92 174 -101q90 -61 135 -135q55 -92 54 -225q0 -198 53 -271q32 -46 144 -84v-34q-111 -38 -144 -82q-53 -73 -53 -273 q0 -137 -53 -225q-44 -73 -134 -135q-2 -2 -176 -101z" />
<glyph unicode="~" horiz-adv-x="865" d="M90 411q0 116 50.5 190.5t125.5 74.5q56 0 176 -73.5t169 -73.5q43 0 72.5 33.5t45.5 94.5h42q0 -126 -51 -198t-136 -72q-49 0 -174 75.5t-163 75.5t-69 -36t-45 -91h-43z" />
<glyph unicode="&#xa1;" d="M143 589v42l260 53v-474q0 -106 21 -136t95 -30v-44h-352v44q75 0 96.5 30t21.5 136v225q0 102 -27.5 128t-114.5 26z" />
<glyph unicode="&#xa2;" d="M44 189v36l354 470h49v-437q44 0 67.5 21t40.5 85l8 34h43l-12 -209h-147q0 -92 21.5 -118.5t94.5 -26.5v-44h-351v44q75 0 96 26.5t21 118.5h-285zM147 258h182v242z" />
<glyph unicode="&#xa3;" d="M97 430l38 212h442v-48l-162 -193q80 -26 128.5 -83.5t48.5 -129.5q0 -90 -74 -156t-187 -66q-102 0 -167 49q-56 43 -56 91q0 38 40 37q14 0 58.5 -58t124.5 -58q70 0 106.5 47t36.5 114q0 55 -31.5 96.5t-85.5 51.5q-12 -12 -32.5 -46t-49.5 -34q-36 0 -36 36 q0 20 17 37l203 214h-177q-51 0 -84.5 -17t-43.5 -60l-11 -36h-46z" />
<glyph unicode="&#xa4;" d="M82 1070q0 79 64 136t173 57q104 0 178.5 -55.5t74.5 -147.5q0 -65 -40 -123q-26 -38 -83 -89l-183 -162h326l-19 -99h-477v46l271 243q51 46 70 83.5t19 95.5t-38.5 94.5t-101.5 36.5q-49 0 -88.5 -34t-39.5 -85q0 -46 34 -96l-55 -51q-43 31 -64 69t-21 81z" />
<glyph unicode="&#xa5;" horiz-adv-x="1280" d="M-77 1186v43h582v-43q-77 0 -112 -16t-35 -49q0 -20 16 -51q9 -17 22 -39l293 -452l299 452q43 65 43 97q0 58 -152 58v43h478v-43q-142 0 -212 -68q-29 -27 -83 -111l-291 -437h202v-90h-251v-94h251v-91h-251v-13q0 -154 34 -196.5t162 -42.5v-43h-554v43 q128 0 162 41.5t34 197.5v13h-307v91h307v94h-307v90h249l-284 437q-67 102 -128 140.5t-167 38.5z" />
<glyph unicode="&#xa6;" horiz-adv-x="431" d="M171 0v614h90v-614h-90zM171 836v615h90v-615h-90z" />
<glyph unicode="&#xa7;" d="M97 278q0 157 70 270q79 128 208 128q77 0 129 -34t52 -72q0 -14 -12 -24t-27 -10q-12 0 -51 37.5t-89 37.5q-70 0 -114 -84q-36 -68 -48 -175q26 17 61 29t70 12q101 0 175.5 -62.5t74.5 -151.5t-69.5 -151t-168.5 -62q-96 0 -163 58q-97 82 -98 254zM212 258 q0 -106 46 -173q41 -60 100 -59q58 0 89 48.5t31 104.5t-33 101q-39 53 -99 53q-46 0 -83.5 -20.5t-50.5 -54.5z" />
<glyph unicode="&#xa8;" horiz-adv-x="634" d="M65 1275q0 34 23 57t57 23t57 -23t23 -57t-23 -57t-57 -23t-57 23t-23 57zM404 1275q0 34 23.5 57t57.5 23t57 -23t23 -57t-23 -57t-57 -23t-57.5 23t-23.5 57z" />
<glyph unicode="&#xa9;" horiz-adv-x="1399" d="M51 614q0 270 189.5 459.5t459.5 189.5t459 -189.5t189 -459.5t-189.5 -459t-458.5 -189q-270 0 -459.5 189.5t-189.5 458.5zM116 614q0 -242 170.5 -412.5t413.5 -170.5q242 0 412.5 170.5t170.5 412.5t-170.5 413t-412.5 171t-413 -170.5t-171 -413.5zM309 614 q0 177 121 303.5t295 126.5q65 0 132.5 -34t111.5 -87q7 7 17.5 37t15.5 54h34v-319h-36q-27 131 -98 205.5t-177 74.5q-142 0 -216 -122q-61 -99 -62 -239q0 -140 62 -239q75 -121 216 -121q106 0 177 74.5t98 207.5h36v-321h-34q-7 31 -14.5 55t-18.5 35q-43 -51 -111 -86 t-133 -35q-171 0 -293.5 126.5t-122.5 303.5z" />
<glyph unicode="&#xaa;" d="M92 463q0 89 69 151t168 62q96 0 164 -58q98 -82 98 -254q0 -157 -70 -270q-79 -128 -209 -128q-77 0 -129 34t-52 72q0 14 12 24t28 10q12 0 51 -37.5t89 -37.5q70 0 114 83q36 68 48 176q-26 -17 -61 -29t-71 -12q-101 0 -175 62.5t-74 151.5zM210 463q0 -56 32 -101 q39 -53 99 -53q46 0 83.5 20.5t51.5 54.5q0 106 -43.5 169t-103.5 63q-58 0 -88.5 -48.5t-30.5 -104.5z" />
<glyph unicode="&#xab;" horiz-adv-x="1365" d="M171 548l674 445l31 -36l-477 -409l477 -408l-31 -38zM601 548l561 339l24 -39l-357 -300l357 -299l-24 -41z" />
<glyph unicode="&#xac;" horiz-adv-x="1167" d="M171 514v90h769v-351h-90v261h-679z" />
<glyph unicode="&#xad;" horiz-adv-x="938" d="M171 425v90h597v-90h-597z" />
<glyph unicode="&#xae;" horiz-adv-x="1399" d="M51 614q0 270 189.5 459.5t459.5 189.5t459 -189.5t189 -459.5t-189.5 -459t-458.5 -189q-270 0 -459.5 189.5t-189.5 458.5zM116 614q0 -242 170.5 -412.5t413.5 -170.5q123 0 232.5 48.5t193.5 135.5h-204l-256 343h-64v-90q0 -138 26.5 -176.5t119.5 -38.5v-38h-413 v38q94 0 120 38t26 177v293q0 137 -27 176t-119 39v38h397q126 0 202 -64t76 -165q0 -85 -60.5 -147.5t-162.5 -76.5l116 -136q60 -73 124 -120q73 -53 130 -52q126 155 126 361q0 242 -170.5 413t-412.5 171t-413 -170.5t-171 -413.5zM602 625h122q73 0 112.5 46t39.5 114 q0 70 -36 113q-41 48 -116 47h-122v-320z" />
<glyph unicode="&#xaf;" horiz-adv-x="529" d="M44 1271v48h372v-48h-372z" />
<glyph unicode="&#xb0;" d="M87 748q0 70 48 119q38 38 107 67q-55 32 -82 64q-38 43 -37 89q0 73 65 124.5t157 51.5q90 0 156 -45.5t66 -114.5q0 -48 -41 -91q-34 -36 -96 -61q82 -38 120 -74q52 -49 52 -119q0 -85 -75 -145t-182 -60q-108 0 -183 54.5t-75 140.5zM198 741q0 -51 41 -90.5 t106 -39.5q63 0 104 39.5t41 90.5t-58 92q-24 17 -123 63q-49 -26 -77 -58q-34 -41 -34 -97zM234 1104q0 -38 41 -70q26 -20 87 -51q39 20 65.5 51t26.5 70q0 38 -32.5 68.5t-76.5 30.5q-48 0 -79.5 -28t-31.5 -71z" />
<glyph unicode="&#xb1;" horiz-adv-x="938" d="M102 -2v91h734v-91h-734zM102 459v91h321v286h91v-286h322v-91h-322v-288h-91v288h-321z" />
<glyph unicode="&#xb2;" d="M82 1070q0 79 64 136t173 57q104 0 178.5 -55.5t74.5 -147.5q0 -65 -40 -123q-26 -38 -83 -89l-183 -162h326l-19 -99h-477v46l271 243q51 46 70 83.5t19 95.5t-38.5 94.5t-101.5 36.5q-49 0 -88.5 -34t-39.5 -85q0 -46 34 -96l-55 -51q-43 31 -64 69t-21 81z" />
<glyph unicode="&#xb3;" d="M97 1017l38 212h442v-48l-162 -193q80 -26 128.5 -83.5t48.5 -129.5q0 -90 -74 -156t-187 -66q-102 0 -167 49q-56 43 -56 91q0 38 40 37q14 0 58.5 -58t124.5 -58q70 0 106.5 47t36.5 114q0 55 -31.5 96.5t-85.5 51.5q-12 -12 -32.5 -46t-49.5 -34q-36 0 -36 36 q0 20 17 37l203 214h-177q-51 0 -84.5 -17t-43.5 -60l-11 -36h-46z" />
<glyph unicode="&#xb4;" horiz-adv-x="464" d="M15 1149l192 179q32 29 44 36q20 12 46 12t42 -20t16 -40t-14.5 -35.5t-33.5 -26.5l-281 -119z" />
<glyph unicode="&#xb5;" horiz-adv-x="1068" d="M39 -340q102 0 132 43.5t30 195.5v502q0 154 -29 196.5t-133 42.5v43h307v-401q0 -108 38.5 -163.5t134.5 -55.5q58 0 123 53q80 65 80 150v135q0 154 -29 196.5t-133 42.5v43h307v-384q0 -154 29 -196.5t133 -42.5v-43l-273 -51q-3 7 -12 39q-17 67 -22 91 q-46 -48 -108 -84q-82 -46 -160 -46q-60 0 -108 19v-86q0 -154 29 -196.5t134 -42.5v-42h-470v42z" />
<glyph unicode="&#xb6;" d="M77 430l39 212h498v-48l-285 -567q-17 -36 -33 -53.5t-40 -17.5q-3 0 -18.5 4t-26 16t-10.5 34q0 24 19 55l304 478h-263q-49 0 -83.5 -17t-44.5 -60l-8 -36h-48z" />
<glyph unicode="&#xb7;" d="M92 1050q0 89 69 151t168 62q96 0 164 -58q98 -82 98 -254q0 -157 -70 -270q-79 -128 -209 -128q-77 0 -129 34t-52 72q0 14 12 24t28 10q12 0 51 -37.5t89 -37.5q70 0 114 83q36 68 48 176q-26 -17 -61 -29t-71 -12q-101 0 -175 62.5t-74 151.5zM210 1050q0 -56 32 -101 q39 -53 99 -53q46 0 83.5 20.5t51.5 54.5q0 106 -43.5 169t-103.5 63q-58 0 -88.5 -48.5t-30.5 -104.5z" />
<glyph unicode="&#xb8;" horiz-adv-x="447" d="M75 -162l222 220h92l-153 -155q63 0 112 -38q60 -46 60 -123q0 -75 -77 -129q-89 -63 -223 -81v57q90 27 132.5 64.5t42.5 88.5q0 36 -37.5 58.5t-90.5 22.5q-36 0 -80 -14v29z" />
<glyph unicode="&#xb9;" d="M143 1176v43l260 52v-474q0 -106 21 -136t95 -30v-44h-352v44q75 0 96.5 30t21.5 136v225q0 102 -27.5 128t-114.5 26z" />
<glyph unicode="&#xba;" d="M85 321q0 145 76 250t184 105t182.5 -104t74.5 -251q0 -145 -75.5 -250t-181.5 -105q-108 0 -184 105t-76 250zM207 321q0 -126 34 -209t104 -83q67 0 102.5 83.5t35.5 208.5q0 128 -34 210t-104 82q-68 0 -103 -82t-35 -210z" />
<glyph unicode="&#xbb;" horiz-adv-x="1365" d="M179 249l357 299l-357 300l24 39l562 -339l-562 -340zM490 140l476 408l-476 409l31 36l674 -445l-674 -446z" />
<glyph unicode="&#xbc;" horiz-adv-x="1745" d="M177 1176v43l260 52v-474q0 -106 21.5 -136t94.5 -30v-44h-352v44q75 0 96.5 30t21.5 136v225q0 102 -27 128t-115 26zM444 0l785 1266l73 -37l-785 -1265zM1034 189v36l354 470h49v-437q44 0 67 21t41 85l8 34h43l-12 -209h-147q0 -92 21.5 -118.5t94.5 -26.5v-44h-352 v44q75 0 96.5 26.5t21.5 118.5h-285zM1137 258h182v242z" />
<glyph unicode="&#xbd;" horiz-adv-x="1745" d="M177 1176v43l260 52v-474q0 -106 21.5 -136t94.5 -30v-44h-352v44q75 0 96.5 30t21.5 136v225q0 102 -27 128t-115 26zM444 0l785 1266l73 -37l-785 -1265zM1089 483q0 79 64 136t173 57q104 0 178.5 -55.5t74.5 -147.5q0 -65 -40 -123q-26 -38 -83 -89l-183 -162h326 l-19 -99h-477v46l271 242q39 32 64 74t25 94q0 73 -38.5 108t-108.5 35q-46 0 -83.5 -34t-37.5 -85q0 -46 34 -96l-55 -51q-43 31 -64 69t-21 81z" />
<glyph unicode="&#xbe;" horiz-adv-x="1745" d="M131 1017l38 212h442v-48l-162 -193q80 -26 128.5 -83.5t48.5 -129.5q0 -90 -74 -156t-187 -66q-102 0 -167 49q-56 43 -56 91q0 38 41 37q14 0 58 -58t124 -58q70 0 107 47t37 114q0 55 -32 96.5t-86 51.5q-12 -12 -32.5 -46t-49.5 -34q-36 0 -36 36q0 20 17 37l203 214 h-177q-51 0 -84.5 -17t-43.5 -60l-11 -36h-46zM444 0l785 1266l73 -37l-785 -1265zM1017 189v36l353 470h50v-437q44 0 67 21t40 85l9 34h43l-12 -209h-147q0 -92 21.5 -118.5t94.5 -26.5v-44h-352v44q75 0 96.5 26.5t21.5 118.5h-285zM1120 258h182v242z" />
<glyph unicode="&#xbf;" horiz-adv-x="1032" d="M155 -36q0 160 110 263q75 70 204 109q80 24 111 24v193h91v-336q-154 0 -256 -62q-123 -73 -123 -215q0 -118 93 -187.5t224 -69.5q108 0 173.5 42.5t65.5 95.5q0 24 -20.5 38.5t-68.5 14.5q-34 0 -57.5 22t-23.5 58q0 44 34 67t70 23q58 0 102 -49q51 -56 51 -140 q0 -97 -97 -167t-246 -70q-177 0 -302 90q-135 97 -135 256zM526 799q0 41 29 70t70 29t68 -29t27 -70t-27 -70t-68 -29t-70 29t-29 70z" />
<glyph unicode="&#xc0;" horiz-adv-x="1262" d="M-77 0v43q142 0 185 58q17 22 59 121l451 1041h27l452 -1041q51 -118 82 -143q43 -36 162 -36v-43h-568v43q181 0 181 80q0 31 -20 75l-99 229h-495l-99 -229q-19 -46 -19 -73q0 -82 179 -82v-43h-478zM352 1562q0 31 17 45.5t41 14.5q22 0 41.5 -10.5t48.5 -37.5 l192 -179l-11 -14l-281 120q-15 9 -29 22q-19 20 -19 39zM372 502h428l-215 493z" />
<glyph unicode="&#xc1;" d="M102 689q0 41 43 41q19 0 39 -35q46 -82 133 -82q70 0 112 52t42 123q0 72 -34 118q-39 53 -108 53q-44 0 -84 -31.5t-54 -84.5h-68l37 386h398l-19 -99h-315l-16 -162q20 22 58 39t79 17q104 0 174 -68.5t70 -167.5q0 -96 -80.5 -165.5t-191.5 -69.5q-99 0 -157 45 t-58 91z" />
<glyph unicode="&#xc2;" horiz-adv-x="587" d="M51 335v44q75 0 96.5 30t21.5 135v74q0 106 -21.5 135.5t-96.5 29.5v43l210 39q7 -17 12 -40t10 -54q27 39 70 66t82 27q65 0 97 -38q26 -30 26 -73q0 -31 -19.5 -47.5t-45.5 -16.5t-43 17.5t-17 42.5q0 43 -39 43q-32 0 -65 -39q-43 -51 -42 -128v-81q0 -106 21 -135.5 t95 -29.5v-44h-352z" />
<glyph unicode="&#xc3;" horiz-adv-x="1262" d="M-77 0v43q142 0 185 58q17 22 59 121l451 1041h27l452 -1041q51 -118 82 -143q43 -36 162 -36v-43h-568v43q181 0 181 80q0 31 -20 75l-99 229h-495l-99 -229q-19 -46 -19 -73q0 -82 179 -82v-43h-478zM360 1399q0 89 37.5 144.5t94.5 55.5q41 0 131 -56t126 -56 q34 0 55.5 24.5t33.5 72.5h32q0 -97 -37.5 -150t-103.5 -53q-38 0 -130 56t-121 56t-53 -26.5t-34 -67.5h-31zM372 502h428l-215 493z" />
<glyph unicode="&#xc4;" horiz-adv-x="628" d="M68 587q0 116 85.5 196.5t194.5 80.5q87 0 149.5 -55.5t62.5 -136.5q0 -29 -7 -54h-355q-2 -10 -2 -23v-20q0 -89 46 -139t142 -50q36 0 83 19.5t79 50.5l36 -43q-44 -46 -107.5 -74t-126.5 -28q-125 0 -202.5 79t-77.5 197zM210 686h230q3 14 4 22q0 34 -24 59t-72 25 q-53 0 -88 -28t-50 -78z" />
<glyph unicode="&#xc5;" horiz-adv-x="600" d="M51 445q0 90 94 146q77 43 222 69q0 80 -18 111t-74 31q-29 0 -54 -16t-25 -47q0 -26 -16 -42t-40 -16t-41 17t-17 41q0 55 58 90t136 35q111 0 160 -49t49 -158v-224q0 -49 27 -49q20 0 41 27l29 -41q-46 -51 -106 -51q-87 0 -106 77q-51 -43 -92.5 -61.5t-84.5 -18.5 q-60 0 -101 35.5t-41 93.5zM179 457q0 -29 17 -46t43 -17q27 0 54.5 14t73.5 55v138q-99 -24 -143.5 -56.5t-44.5 -87.5z" />
<glyph unicode="&#xc6;" horiz-adv-x="1551" d="M-94 0v43q113 0 166.5 35t111.5 144l521 1007h665l18 -272h-43l-10 41q-22 90 -58 118q-48 38 -180 38h-201v-569h26q148 0 180.5 32.5t32.5 164.5h43v-468h-43q0 133 -29 162q-34 34 -184 34h-26v-196q0 -154 34 -196.5t162 -42.5h74q133 0 179 36q34 27 58 119l10 41 h43l-17 -271h-901v43q128 0 162 41.5t34 197.5v228h-316l-160 -312q-29 -55 -29 -89q0 -67 155 -66v-43h-478zM457 585h277v535z" />
<glyph unicode="&#xc7;" horiz-adv-x="1075" d="M125 444q0 186 121 322.5t300 151.5v345h74v-343q67 -7 131.5 -43.5t106.5 -89.5q10 10 19.5 39t16.5 61h40v-355h-41q-27 137 -97.5 217t-175.5 92v-795q104 12 174.5 94t98.5 217h41v-357h-40q-5 26 -15 57.5t-21 43.5q-43 -53 -106.5 -88.5t-131.5 -44.5v-343h-74v343 q-177 17 -299 153.5t-122 322.5zM290 444q0 -148 53 -251q66 -130 203 -147v794q-135 -17 -201 -145q-55 -104 -55 -251z" />
<glyph unicode="&#xc8;" horiz-adv-x="428" d="M51 335v44q75 0 96.5 30t21.5 135v74q0 106 -21.5 135.5t-96.5 29.5v45l236 37v-321q0 -106 21 -135.5t95 -29.5v-44h-352zM157 1068q0 27 20.5 49.5t49.5 22.5q31 0 51.5 -20.5t20.5 -51.5q0 -29 -20.5 -51t-51.5 -22q-29 0 -49.5 22t-20.5 51z" />
<glyph unicode="&#xc9;" d="M44 777v35l354 470h49v-437q44 0 67.5 21t40.5 85l8 34h43l-12 -208h-147q0 -92 21.5 -119t94.5 -27v-44h-351v44q75 0 96 26.5t21 119.5h-285zM147 845h182v242z" />
<glyph unicode="&#xca;" horiz-adv-x="442" d="M38 773v48q65 15 93.5 58t37.5 121h63v-160h128v-67h-128v-290q0 -101 60 -101q41 0 95 55l36 -34q-36 -43 -79.5 -67.5t-78.5 -24.5q-72 0 -111.5 42.5t-39.5 129.5v290h-76z" />
<glyph unicode="&#xcb;" d="M97 865q0 157 70 270q79 128 208 128q77 0 129 -34t52 -72q0 -14 -12 -24t-27 -10q-12 0 -51 37.5t-89 37.5q-70 0 -114 -84q-36 -68 -48 -175q26 17 61 29t70 12q101 0 175.5 -62.5t74.5 -151.5t-69.5 -151t-168.5 -62q-96 0 -163 58q-97 82 -98 254zM212 845 q0 -106 46 -173q41 -60 100 -59q58 0 89 48.5t31 104.5t-33 101q-39 53 -99 53q-46 0 -83.5 -20.5t-50.5 -54.5z" />
<glyph unicode="&#xcc;" horiz-adv-x="682" d="M77 0v43q128 0 162 41.5t34 197.5v665q0 154 -34 196.5t-162 42.5v43h554v-43q-128 0 -162 -41.5t-34 -197.5v-665q0 -154 34 -196.5t162 -42.5v-43h-554zM109 1562q0 31 17 45.5t41 14.5q22 0 41.5 -10.5t48.5 -37.5l192 -179l-11 -14l-281 120q-15 9 -29 22 q-19 20 -19 39z" />
<glyph unicode="&#xcd;" horiz-adv-x="482" d="M60 311v228h44q0 -58 42 -112.5t112 -54.5q32 0 54.5 20.5t22.5 56.5q0 24 -24 44q-14 10 -55 33l-82 44q-53 27 -77.5 70t-24.5 84q0 60 47 100t110 40q41 0 78 -17l38 -18q10 0 10 35h44v-185h-44q0 51 -30 88t-83 37q-68 0 -68 -63q0 -26 34 -48q10 -7 51 -29l72 -39 q106 -60 106 -149q0 -75 -52 -120t-131 -45q-32 0 -65.5 15t-67.5 32q-17 0 -17 -47h-44z" />
<glyph unicode="&#xce;" horiz-adv-x="764" d="M68 587q0 113 77 195t186 82q49 0 93.5 -20t78.5 -56v222q0 108 -19.5 137t-96.5 29v43l236 41v-704q0 -108 19.5 -136.5t96.5 -28.5v-43l-205 -39q-9 12 -14.5 33.5t-10.5 50.5q-34 -38 -78.5 -60t-99.5 -22q-109 0 -186 80t-77 196zM201 587q0 -92 40.5 -148.5 t120.5 -56.5q100 0 141 111v186q-19 51 -56 82t-85 31q-79 0 -120 -58t-41 -147z" />
<glyph unicode="&#xcf;" horiz-adv-x="738" d="M0 1176v43l236 41v-472q34 36 78 56t96 20q108 0 184.5 -80.5t76.5 -196.5q0 -113 -77 -194.5t-184 -81.5q-121 0 -190 93l-63 -92l-39 -1v699q0 106 -21.5 136t-96.5 30zM236 495q20 -53 56.5 -83t86.5 -30q79 0 119.5 58t40.5 147q0 92 -37 145q-43 60 -123 60 q-48 0 -85.5 -30t-57.5 -81v-186z" />
<glyph unicode="&#xd0;" horiz-adv-x="1460" d="M34 572v92h239v283q0 154 -34 196.5t-162 42.5v43h556q340 0 519 -179q164 -164 164 -436q0 -271 -162 -433q-179 -181 -521 -181h-556v43q128 0 162 41.5t34 197.5v290h-239zM427 314q0 -154 34 -196.5t162 -42.5h10q275 0 400 179q96 138 95 360q0 222 -94 359 q-125 181 -401 181h-206v-490h204v-92h-204v-258z" />
<glyph unicode="&#xd1;" d="M77 1017l39 212h498v-48l-285 -567q-17 -36 -33 -53.5t-40 -17.5q-3 0 -18.5 4t-26 16t-10.5 34q0 24 19 55l304 478h-263q-49 0 -83.5 -17t-44.5 -60l-8 -36h-48z" />
<glyph unicode="&#xd2;" horiz-adv-x="401" d="M26 335v44q75 0 95.5 29t20.5 136v466q0 106 -21.5 136t-94.5 30v43l233 41v-716q0 -106 21.5 -135.5t96.5 -29.5v-44h-351z" />
<glyph unicode="&#xd3;" horiz-adv-x="826" d="M51 335v44q75 0 96.5 30t21.5 135v74q0 106 -21.5 135.5t-96.5 29.5v43l210 39q3 -7 12 -42.5t12 -56.5q39 43 80 67q55 31 120 31q99 0 152 -65q48 -60 47 -161v-94q0 -108 20 -136.5t96 -28.5v-44h-351v44q73 0 94.5 30t21.5 135v86q0 73 -27.5 111.5t-98.5 38.5 q-49 0 -96 -36q-56 -43 -56 -102v-98q0 -111 16 -138t88 -27v-44h-340z" />
<glyph unicode="&#xd4;" horiz-adv-x="1153" d="M51 335v44q75 0 96.5 30t21.5 135v74q0 106 -21.5 135.5t-96.5 29.5v43l210 39q14 -36 24 -99q39 43 79 67q53 31 109 31q65 0 102.5 -26t55.5 -77q31 39 84 68q63 34 120 35q97 0 140 -64q38 -55 37 -162v-94q0 -106 21.5 -135.5t94.5 -29.5v-44h-326v44q63 0 77.5 26.5 t14.5 138.5v86q0 73 -23.5 111.5t-82.5 38.5q-39 0 -85 -36q-55 -43 -54 -102v-98q0 -113 14.5 -139t77.5 -26v-44h-302v44q65 0 78.5 24.5t13.5 140.5v86q0 75 -22.5 112.5t-81.5 37.5q-41 0 -86 -36q-55 -44 -54 -102v-98q0 -111 14.5 -138t77.5 -27v-44h-328z" />
<glyph unicode="&#xd5;" horiz-adv-x="1655" d="M145 614q0 268 200.5 458.5t482.5 190.5t482 -190.5t200 -458.5t-200.5 -458t-481.5 -190q-282 0 -482.5 190t-200.5 458zM340 614q0 -222 111 -378q133 -189 377 -190q242 0 375 188q113 159 113 380q0 222 -111 379q-133 190 -377 190q-242 0 -376 -188 q-113 -159 -112 -381zM536 1399q0 89 37.5 144.5t93.5 55.5q41 0 131.5 -56t126.5 -56q34 0 55.5 24.5t33.5 72.5h32q0 -97 -37.5 -150t-103.5 -53q-38 0 -130 56t-121 56t-53 -26.5t-34 -67.5h-31z" />
<glyph unicode="&#xd6;" d="M92 1050q0 89 69 151t168 62q96 0 164 -58q98 -82 98 -254q0 -157 -70 -270q-79 -128 -209 -128q-77 0 -129 34t-52 72q0 14 12 24t28 10q12 0 51 -37.5t89 -37.5q70 0 114 83q36 68 48 176q-26 -17 -61 -29t-71 -12q-101 0 -175 62.5t-74 151.5zM210 1050q0 -56 32 -101 q39 -53 99 -53q46 0 83.5 20.5t51.5 54.5q0 106 -43.5 169t-103.5 63q-58 0 -88.5 -48.5t-30.5 -104.5z" />
<glyph unicode="&#xd7;" horiz-adv-x="0" />
<glyph unicode="&#xd8;" horiz-adv-x="759" d="M68 587q0 113 89 195t215 82t215 -80.5t89 -196.5q0 -113 -89 -194.5t-215 -81.5t-215 80t-89 196zM201 587q0 -92 43 -149t128 -57t128 57t43 149t-43 149.5t-128 57.5t-128 -57.5t-43 -149.5z" />
<glyph unicode="&#xd9;" horiz-adv-x="1534" d="M46 1186v43h555v-43q-128 0 -162.5 -41.5t-34.5 -197.5v-502q0 -191 103 -291q97 -96 258 -96q169 0 268 94q108 102 107 293v502q0 154 -34 196.5t-162 42.5v43h479v-43q-128 0 -162 -41.5t-34 -197.5v-490q0 -232 -145 -367q-135 -125 -348 -124q-213 0 -348 124 q-143 133 -144 367v490q0 154 -34 196.5t-162 42.5zM474 1562q0 31 17 45.5t41 14.5q22 0 41.5 -10.5t48.5 -37.5l192 -179l-11 -14l-281 120q-15 9 -29 22q-19 20 -19 39z" />
<glyph unicode="&#xda;" horiz-adv-x="1534" d="M46 1186v43h555v-43q-128 0 -162.5 -41.5t-34.5 -197.5v-502q0 -191 103 -291q97 -96 258 -96q169 0 268 94q108 102 107 293v502q0 154 -34 196.5t-162 42.5v43h479v-43q-128 0 -162 -41.5t-34 -197.5v-490q0 -232 -145 -367q-135 -125 -348 -124q-213 0 -348 124 q-143 133 -144 367v490q0 154 -34 196.5t-162 42.5zM672 1395l192 179q32 29 44 36q20 12 46 12t42 -20t16 -40t-14.5 -35.5t-33.5 -26.5l-281 -119z" />
<glyph unicode="&#xdb;" horiz-adv-x="1534" d="M46 1186v43h555v-43q-128 0 -162.5 -41.5t-34.5 -197.5v-502q0 -191 103 -291q97 -96 258 -96q169 0 268 94q108 102 107 293v502q0 154 -34 196.5t-162 42.5v43h479v-43q-128 0 -162 -41.5t-34 -197.5v-490q0 -232 -145 -367q-135 -125 -348 -124q-213 0 -348 124 q-143 133 -144 367v490q0 154 -34 196.5t-162 42.5zM534 1406l244 265l244 -265l-25 -24l-219 156l-218 -156z" />
<glyph unicode="&#xdc;" d="M85 908q0 145 76 250t184 105t182.5 -104t74.5 -251q0 -145 -75.5 -250t-181.5 -105q-108 0 -184 105t-76 250zM207 908q0 -126 34 -209t104 -83q67 0 102.5 83.5t35.5 208.5q0 128 -34 210t-104 82q-68 0 -103 -82t-35 -210z" />
<glyph unicode="&#xdd;" horiz-adv-x="1280" d="M-77 1186v43h582v-43q-77 0 -112 -16t-35 -49q0 -20 16 -51q9 -17 22 -39l293 -452l299 452q43 65 43 97q0 58 -152 58v43h478v-43q-142 0 -212 -68q-29 -27 -83 -111l-340 -512v-213q0 -154 34 -196.5t162 -42.5v-43h-554v43q128 0 162 41.5t34 197.5v199l-342 526 q-67 102 -128 140.5t-167 38.5zM609 1396l192 179q32 29 44 36q20 12 46 12t42 -20t16 -40t-14.5 -35.5t-33.5 -26.5l-281 -119z" />
<glyph unicode="&#xde;" horiz-adv-x="885" d="M94 0v41q102 0 132 43.5t30 195.5v328q0 154 -29 196.5t-133 42.5v40h469v-40q-92 0 -126 -32.5t-34 -138.5h116q326 0 326 -217q0 -106 -84.5 -164t-241.5 -58h-118q0 -123 31.5 -159.5t130.5 -36.5v-41h-469zM401 312h116q169 1 169 144q0 145 -169 145h-116v-289z" />
<glyph unicode="&#xdf;" horiz-adv-x="1225" d="M77 0v43q102 0 132 43.5t30 195.5v327h-162v43q102 0 132 40t30 182q0 198 104 300q90 89 232 89q96 0 154 -53q51 -46 51 -104q0 -68 -68 -68q-43 0 -63 49q-46 109 -111 109q-80 0 -117 -71.5t-37 -245.5v-879h-307zM650 -34v299h43q0 -79 56 -149q67 -82 167 -82 q49 0 83 30t34 74q0 38 -29 67t-86 60l-114 61q-70 38 -103.5 93t-33.5 112q0 82 61.5 134t147.5 52q53 0 93 -14q39 -17 79 -34q14 0 14 48h42v-237h-42q0 68 -43 117q-48 55 -125 55q-49 0 -76.5 -24t-27.5 -65q0 -34 27.5 -59.5t97.5 -64.5l99 -55q141 -77 141 -196 q0 -99 -70 -160.5t-174 -61.5q-43 0 -93 21.5t-99 43.5q-26 0 -26 -65h-43z" />
<glyph unicode="&#xe0;" horiz-adv-x="1053" d="M7 0v43q92 0 125.5 29.5t84.5 149.5l302 700h27l302 -700q49 -116 84.5 -147.5t115.5 -31.5v-43h-459v43q77 0 107.5 12.5t30.5 48.5q0 31 -27 94l-41 96h-335l-41 -96q-15 -34 -22.5 -59.5t-7.5 -41.5q0 -31 30.5 -42.5t109.5 -11.5v-43h-386zM268 1222q0 31 17 45.5 t41 14.5q22 0 41.5 -10.5t48.5 -37.5l192 -179l-11 -14l-281 120q-15 9 -29 22q-19 20 -19 39zM357 369h269l-134 312z" />
<glyph unicode="&#xe1;" horiz-adv-x="1053" d="M7 0v43q92 0 125.5 29.5t84.5 149.5l302 700h27l302 -700q49 -116 84.5 -147.5t115.5 -31.5v-43h-459v43q77 0 107.5 12.5t30.5 48.5q0 31 -27 94l-41 96h-335l-41 -96q-15 -34 -22.5 -59.5t-7.5 -41.5q0 -31 30.5 -42.5t109.5 -11.5v-43h-386zM357 369h269l-134 312z M481 1055l192 179q32 29 44 36q20 12 46 12t42 -20t16 -40t-14.5 -35.5t-33.5 -26.5l-281 -119z" />
<glyph unicode="&#xe2;" horiz-adv-x="1053" d="M7 0v43q92 0 125.5 29.5t84.5 149.5l302 700h27l302 -700q49 -116 84.5 -147.5t115.5 -31.5v-43h-459v43q77 0 107.5 12.5t30.5 48.5q0 31 -27 94l-41 96h-335l-41 -96q-15 -34 -22.5 -59.5t-7.5 -41.5q0 -31 30.5 -42.5t109.5 -11.5v-43h-386zM280 1065l244 264 l244 -264l-26 -24l-218 155l-219 -155zM357 369h269l-134 312z" />
<glyph unicode="&#xe3;" horiz-adv-x="1053" d="M7 0v43q92 0 125.5 29.5t84.5 149.5l302 700h27l302 -700q49 -116 84.5 -147.5t115.5 -31.5v-43h-459v43q77 0 107.5 12.5t30.5 48.5q0 31 -27 94l-41 96h-335l-41 -96q-15 -34 -22.5 -59.5t-7.5 -41.5q0 -31 30.5 -42.5t109.5 -11.5v-43h-386zM271 1060q0 89 37.5 144.5 t94.5 55.5q41 0 131.5 -56.5t125.5 -56.5q34 0 55.5 24.5t33.5 72.5h33q0 -97 -37.5 -150t-104.5 -53q-38 0 -130 56.5t-121 56.5t-53 -26.5t-34 -67.5h-31zM357 369h269l-134 312z" />
<glyph unicode="&#xe4;" horiz-adv-x="1053" d="M7 0v43q92 0 125.5 29.5t84.5 149.5l302 700h27l302 -700q49 -116 84.5 -147.5t115.5 -31.5v-43h-459v43q77 0 107.5 12.5t30.5 48.5q0 31 -27 94l-41 96h-335l-41 -96q-15 -34 -22.5 -59.5t-7.5 -41.5q0 -31 30.5 -42.5t109.5 -11.5v-43h-386zM275 1121q0 34 23 57 t57 23t57 -23t23 -57t-23 -57t-57 -23t-57 23t-23 57zM357 369h269l-134 312zM614 1121q0 34 23.5 57t57.5 23t57 -23t23 -57t-23 -57t-57 -23t-57.5 23t-23.5 57z" />
<glyph unicode="&#xe5;" horiz-adv-x="1053" d="M7 0v43q92 0 125.5 29.5t84.5 149.5l302 700h27l302 -700q49 -116 84.5 -147.5t115.5 -31.5v-43h-459v43q77 0 107.5 12.5t30.5 48.5q0 31 -27 94l-41 96h-335l-41 -96q-15 -34 -22.5 -59.5t-7.5 -41.5q0 -31 30.5 -42.5t109.5 -11.5v-43h-386zM357 369h269l-134 312z M360 1208q0 70 49.5 119.5t119.5 49.5t119.5 -49.5t49.5 -119.5t-49.5 -119t-119.5 -49t-119.5 49.5t-49.5 118.5zM435 1208q0 -39 27.5 -66t66.5 -27t66.5 27t27.5 66t-27.5 66.5t-66.5 27.5t-66.5 -27t-27.5 -67z" />
<glyph unicode="&#xe6;" horiz-adv-x="1344" d="M7 0v43q80 0 124 30q51 36 116 149l384 665h306h264l18 -247h-43l-10 41q-19 77 -57 101q-48 31 -181 30h-136v-365h12q150 0 186 28t36 134h41v-399h-41q0 104 -37 133t-185 29h-12v-58q0 -154 29 -196.5t133 -42.5h24q133 0 175.5 26.5t61.5 105.5l10 40h43l-17 -247 h-766v41q102 0 132 43.5t30 195.5v92h-243l-100 -174q-43 -75 -43 -106q0 -49 121 -49v-43h-375zM449 447h198v341z" />
<glyph unicode="&#xe7;" horiz-adv-x="1058" d="M116 444q0 196 135.5 337t327.5 141q75 0 149 -37.5t122 -97.5q10 10 19.5 39t16.5 61h39v-355h-41q-31 147 -109.5 229t-195.5 82q-155 0 -234 -135q-63 -108 -63 -264q0 -159 61 -265q79 -135 236 -135q118 0 196 82t109 231h41v-357h-39q-5 26 -15.5 57.5t-20.5 43.5 q-46 -58 -121 -96.5t-149 -38.5l-83 -85q63 0 112 -38q60 -46 60 -123q0 -75 -77 -130q-89 -63 -223 -80v57q90 27 132.5 64.5t42.5 88.5q0 36 -37.5 58t-90.5 22q-36 0 -80 -13v29l159 158q-162 31 -270.5 163.5t-108.5 306.5z" />
<glyph unicode="&#xe8;" horiz-adv-x="972" d="M94 0v41q102 0 132 43.5t30 195.5v328q0 154 -29 196.5t-133 42.5v40h452h265l17 -247h-43l-10 41q-19 77 -56 101q-48 31 -181 30h-137v-305h12q150 0 186 28t36 134h41v-399h-41q0 104 -37 133t-185 29h-12v-118q0 -154 29 -196.5t133 -42.5h24q133 0 176 26.5 t61 105.5l11 40h42l-17 -247h-766zM294 1222q0 31 17 45.5t41 14.5q22 0 41.5 -10.5t48.5 -37.5l192 -179l-11 -14l-281 120q-15 9 -29 22q-19 20 -19 39z" />
<glyph unicode="&#xe9;" horiz-adv-x="972" d="M94 0v41q102 0 132 43.5t30 195.5v328q0 154 -29 196.5t-133 42.5v40h452h265l17 -247h-43l-10 41q-19 77 -56 101q-48 31 -181 30h-137v-305h12q150 0 186 28t36 134h41v-399h-41q0 104 -37 133t-185 29h-12v-118q0 -154 29 -196.5t133 -42.5h24q133 0 176 26.5 t61 105.5l11 40h42l-17 -247h-766zM392 1055l192 179q32 29 44 36q20 12 46 12t42 -20t16 -40t-14.5 -35.5t-33.5 -26.5l-281 -119z" />
<glyph unicode="&#xea;" horiz-adv-x="972" d="M94 0v41q102 0 132 43.5t30 195.5v328q0 154 -29 196.5t-133 42.5v40h452h265l17 -247h-43l-10 41q-19 77 -56 101q-48 31 -181 30h-137v-305h12q150 0 186 28t36 134h41v-399h-41q0 104 -37 133t-185 29h-12v-118q0 -154 29 -196.5t133 -42.5h24q133 0 176 26.5 t61 105.5l11 40h42l-17 -247h-766zM241 1065l244 264l244 -264l-26 -24l-218 155l-219 -155z" />
<glyph unicode="&#xeb;" horiz-adv-x="972" d="M94 0v41q102 0 132 43.5t30 195.5v328q0 154 -29 196.5t-133 42.5v40h452h265l17 -247h-43l-10 41q-19 77 -56 101q-48 31 -181 30h-137v-305h12q150 0 186 28t36 134h41v-399h-41q0 104 -37 133t-185 29h-12v-118q0 -154 29 -196.5t133 -42.5h24q133 0 176 26.5 t61 105.5l11 40h42l-17 -247h-766zM224 1121q0 34 23 57t57 23t57 -23t23 -57t-23 -57t-57 -23t-57 23t-23 57zM563 1121q0 34 23.5 57t57.5 23t57 -23t23 -57t-23 -57t-57 -23t-57.5 23t-23.5 57z" />
<glyph unicode="&#xec;" horiz-adv-x="658" d="M90 1222q0 31 17.5 45.5t40.5 14.5q22 0 42 -10.5t49 -37.5l191 -179l-10 -14l-282 120q-15 9 -29 22q-19 20 -19 39zM94 0v41q102 0 132 43.5t30 195.5v328q0 154 -29 196.5t-133 42.5v40h469v-40q-102 0 -132 -44t-30 -195v-328q0 -154 29 -196.5t133 -42.5v-41h-469z " />
<glyph unicode="&#xed;" horiz-adv-x="658" d="M94 0v41q102 0 132 43.5t30 195.5v328q0 154 -29 196.5t-133 42.5v40h469v-40q-102 0 -132 -44t-30 -195v-328q0 -154 29 -196.5t133 -42.5v-41h-469zM213 1055l191 179q32 29 45 36q20 12 46 12t42 -20t16 -40t-14.5 -35.5t-33.5 -25.5l-281 -120z" />
<glyph unicode="&#xee;" horiz-adv-x="658" d="M84 1063l244 265l244 -265l-26 -24l-218 156l-219 -156zM94 0v41q102 0 132 43.5t30 195.5v328q0 154 -29 196.5t-133 42.5v40h469v-40q-102 0 -132 -44t-30 -195v-328q0 -154 29 -196.5t133 -42.5v-41h-469z" />
<glyph unicode="&#xef;" horiz-adv-x="658" d="M75 1121q0 34 23 57t57 23t57.5 -23t23.5 -57t-23.5 -57t-57.5 -23t-57 23t-23 57zM94 0v41q102 0 132 43.5t30 195.5v328q0 154 -29 196.5t-133 42.5v40h469v-40q-102 0 -132 -44t-30 -195v-328q0 -154 29 -196.5t133 -42.5v-41h-469zM415 1121q0 34 23 57t57 23t57 -23 t23 -57t-23 -57t-57 -23t-57 23t-23 57z" />
<glyph unicode="&#xf0;" horiz-adv-x="1143" d="M85 408v90h171v110q0 154 -29 196.5t-133 42.5v40h433q249 0 381 -129q119 -118 119 -314t-117 -314q-131 -130 -383 -130h-433v41q102 0 132 43.5t30 195.5v128h-171zM401 230q0 -102 19.5 -128.5t96.5 -26.5h17q181 0 263 123q61 92 61 246t-59 244q-82 125 -265 124 h-133v-314h195v-90h-195v-178z" />
<glyph unicode="&#xf1;" horiz-adv-x="1221" d="M94 0v41q102 0 132 43.5t30 195.5v328q0 154 -29 196.5t-133 42.5v40h252l545 -648v369q0 154 -29 196.5t-133 42.5v40h399v-40q-102 0 -132 -44t-30 -195v-640h-38l-597 713v-401q0 -154 29 -196.5t133 -42.5v-41h-399zM338 1060q0 89 37.5 144.5t93.5 55.5 q41 0 131.5 -56.5t126.5 -56.5q34 0 55.5 24.5t33.5 72.5h32q0 -97 -37.5 -150t-103.5 -53q-38 0 -130 56.5t-121 56.5t-53 -26.5t-34 -67.5h-31z" />
<glyph unicode="&#xf2;" horiz-adv-x="1232" d="M116 444q0 196 147.5 337t352.5 141q207 0 353.5 -140t146.5 -338t-146.5 -338t-353.5 -140t-353.5 140t-146.5 338zM285 444q0 -157 73 -267q90 -133 258 -133q167 0 258 133q75 112 75 267q0 154 -75 264q-92 135 -258 135t-256 -133q-75 -111 -75 -266zM394 1222 q0 31 17 45.5t41 14.5q22 0 41.5 -10.5t48.5 -37.5l192 -179l-11 -14l-281 120q-15 9 -29 22q-19 20 -19 39z" />
<glyph unicode="&#xf3;" horiz-adv-x="1232" d="M116 444q0 196 147.5 337t352.5 141q207 0 353.5 -140t146.5 -338t-146.5 -338t-353.5 -140t-353.5 140t-146.5 338zM285 444q0 -157 73 -267q90 -133 258 -133q167 0 258 133q75 112 75 267q0 154 -75 264q-92 135 -258 135t-256 -133q-75 -111 -75 -266zM496 1055 l192 179q32 29 44 36q20 12 46 12t42 -20t16 -40t-14.5 -35.5t-33.5 -26.5l-281 -119z" />
<glyph unicode="&#xf4;" horiz-adv-x="1232" d="M116 444q0 196 147.5 337t352.5 141q207 0 353.5 -140t146.5 -338t-146.5 -338t-353.5 -140t-353.5 140t-146.5 338zM285 444q0 -157 73 -267q90 -133 258 -133q167 0 258 133q75 112 75 267q0 154 -75 264q-92 135 -258 135t-256 -133q-75 -111 -75 -266zM365 1065 l244 264l244 -264l-25 -24l-219 155l-218 -155z" />
<glyph unicode="&#xf5;" horiz-adv-x="1232" d="M116 444q0 196 147.5 337t352.5 141q207 0 353.5 -140t146.5 -338t-146.5 -338t-353.5 -140t-353.5 140t-146.5 338zM285 444q0 -157 73 -267q90 -133 258 -133q167 0 258 133q75 112 75 267q0 154 -75 264q-92 135 -258 135t-256 -133q-75 -111 -75 -266zM393 1060 q0 89 37.5 144.5t93.5 55.5q41 0 131.5 -56.5t126.5 -56.5q34 0 55 24.5t33 72.5h33q0 -97 -37.5 -150t-104.5 -53q-38 0 -130 56.5t-121 56.5t-53 -26.5t-34 -67.5h-30z" />
<glyph unicode="&#xf6;" horiz-adv-x="1232" d="M116 444q0 196 147.5 337t352.5 141q207 0 353.5 -140t146.5 -338t-146.5 -338t-353.5 -140t-353.5 140t-146.5 338zM285 444q0 -157 73 -267q90 -133 258 -133q167 0 258 133q75 112 75 267q0 154 -75 264q-92 135 -258 135t-256 -133q-75 -111 -75 -266zM372 1121 q0 34 23 57t57 23t57 -23t23 -57t-23 -57t-57 -23t-57 23t-23 57zM711 1121q0 34 23.5 57t57.5 23t57 -23t23 -57t-23 -57t-57 -23t-57.5 23t-23.5 57z" />
<glyph unicode="&#xf7;" horiz-adv-x="938" d="M171 408v90h597v-90h-597zM372 172q0 41 27.5 70t68.5 29t70 -29t29 -70t-29 -70t-70 -29t-68.5 29t-27.5 70zM372 734q0 41 27.5 70t68.5 29t70 -29t29 -70t-29 -70t-70 -29t-68.5 29t-27.5 70z" />
<glyph unicode="&#xf8;" horiz-adv-x="1232" d="M116 444q0 196 147.5 337t352.5 141q130 0 242 -62l82 120l70 -41l-83 -122q89 -68 139 -164.5t50 -208.5q0 -198 -146.5 -338t-353.5 -140q-65 0 -125.5 15.5t-116.5 44.5l-80 -116l-70 39l83 119q-87 67 -139 166t-52 210zM285 444q0 -75 21.5 -150.5t65.5 -131.5 l432 621q-77 60 -188 60q-166 0 -256 -133q-75 -111 -75 -266zM428 104q77 -60 188 -60q167 0 258 133q75 111 75 267q0 73 -21.5 148t-65.5 133z" />
<glyph unicode="&#xf9;" horiz-adv-x="1174" d="M60 847v40h469v-40q-102 0 -132 -44t-30 -195v-291q0 -128 65 -193.5t176 -65.5q113 0 181.5 65.5t68.5 193.5v291q0 154 -29 196.5t-133 42.5v40h418v-40q-102 0 -132 -44t-30 -195v-277q0 -172 -107 -271q-101 -92 -260 -92q-155 0 -256 92q-108 99 -107 271v277 q0 154 -29 196.5t-133 42.5zM335 1220q0 31 17 45.5t41 14.5q22 0 41.5 -10.5t48.5 -37.5l192 -179l-11 -14l-281 120q-15 9 -29 22q-19 20 -19 39z" />
<glyph unicode="&#xfa;" horiz-adv-x="1174" d="M60 847v40h469v-40q-102 0 -132 -44t-30 -195v-291q0 -128 65 -193.5t176 -65.5q113 0 181.5 65.5t68.5 193.5v291q0 154 -29 196.5t-133 42.5v40h418v-40q-102 0 -132 -44t-30 -195v-277q0 -172 -107 -271q-101 -92 -260 -92q-155 0 -256 92q-108 99 -107 271v277 q0 154 -29 196.5t-133 42.5zM508 1053l192 179q32 29 44 36q20 12 46 12t42 -20t16 -40t-14.5 -35.5t-33.5 -26.5l-281 -119z" />
<glyph unicode="&#xfb;" horiz-adv-x="1174" d="M60 847v40h469v-40q-102 0 -132 -44t-30 -195v-291q0 -128 65 -193.5t176 -65.5q113 0 181.5 65.5t68.5 193.5v291q0 154 -29 196.5t-133 42.5v40h418v-40q-102 0 -132 -44t-30 -195v-277q0 -172 -107 -271q-101 -92 -260 -92q-155 0 -256 92q-108 99 -107 271v277 q0 154 -29 196.5t-133 42.5zM346 1065l245 264l244 -264l-26 -24l-218 155l-219 -155z" />
<glyph unicode="&#xfc;" horiz-adv-x="1174" d="M60 847v40h469v-40q-102 0 -132 -44t-30 -195v-291q0 -128 65 -193.5t176 -65.5q113 0 181.5 65.5t68.5 193.5v291q0 154 -29 196.5t-133 42.5v40h418v-40q-102 0 -132 -44t-30 -195v-277q0 -172 -107 -271q-101 -92 -260 -92q-155 0 -256 92q-108 99 -107 271v277 q0 154 -29 196.5t-133 42.5zM352 1121q0 34 23 57t57 23t57 -23t23 -57t-23 -57t-57 -23t-57 23t-23 57zM691 1121q0 34 23.5 57t57.5 23t57 -23t23 -57t-23 -57t-57 -23t-57.5 23t-23.5 57z" />
<glyph unicode="&#xfd;" horiz-adv-x="989" d="M-9 845v42h456v-42q-58 0 -84.5 -10.5t-26.5 -35.5q0 -34 51 -110l159 -235l159 235q27 41 41.5 69.5t14.5 45.5q0 41 -114 41v42h386v-42q-82 0 -131 -37.5t-120 -141.5l-202 -299v-87q0 -154 29 -196.5t133 -42.5v-41h-469v41q102 0 132 43.5t30 195.5v84l-203 302 q-73 108 -118.5 143.5t-122.5 35.5zM426 1055l192 179q32 29 44 36q20 12 46 12t42 -20t16 -40t-14.5 -35.5t-33.5 -26.5l-281 -119z" />
<glyph unicode="&#xfe;" horiz-adv-x="1105" d="M77 0v43q128 0 162 41.5t34 197.5v691q0 137 -36 175t-160 38v43h554v-43q-123 0 -159.5 -38.5t-36.5 -174.5h183q203 0 321.5 -99t118.5 -248q0 -148 -117.5 -246t-322.5 -98h-183q0 -154 34 -196.5t162 -42.5v-43h-554zM435 357h181q126 0 193.5 76t67.5 193 q0 118 -63 191q-70 80 -198 81h-181v-541z" />
<glyph unicode="&#xff;" horiz-adv-x="989" d="M-9 845v42h456v-42q-58 0 -84.5 -10.5t-26.5 -35.5q0 -34 51 -110l159 -235l159 235q27 41 41.5 69.5t14.5 45.5q0 41 -114 41v42h386v-42q-82 0 -131 -37.5t-120 -141.5l-202 -299v-87q0 -154 29 -196.5t133 -42.5v-41h-469v41q102 0 132 43.5t30 195.5v84l-203 302 q-73 108 -118.5 143.5t-122.5 35.5zM237 1121q0 34 23 57t57 23t57 -23t23 -57t-23 -57t-57 -23t-57 23t-23 57zM576 1121q0 34 23.5 57t57.5 23t57 -23t23 -57t-23 -57t-57 -23t-57.5 23t-23.5 57z" />
<glyph unicode="&#x152;" horiz-adv-x="1913" d="M145 614q0 268 200.5 458.5t482.5 190.5q56 0 111.5 -8.5t108.5 -25.5h684l17 -272h-42l-11 41q-22 90 -58 118q-48 38 -179 38h-304v-466h103q154 0 196.5 34t42.5 162h42v-468h-42q0 128 -42 162.5t-197 34.5h-103v-299q0 -154 34.5 -196.5t162.5 -42.5h175 q133 0 180 36q34 27 58 119l10 41h43l-17 -271h-755q-106 -34 -218 -34q-282 0 -482.5 190t-200.5 458zM340 614q0 -222 111 -378q133 -189 377 -190q87 0 165 27v1082q-41 14 -78.5 21t-86.5 7q-242 0 -376 -188q-113 -159 -112 -381z" />
<glyph unicode="&#x153;" horiz-adv-x="1551" d="M116 444q0 196 147.5 337t352.5 141q97 0 184 -35h337h264l17 -247h-42l-11 41q-19 77 -56 101q-48 31 -181 30h-136v-305h12q150 0 185.5 28t35.5 134h41v-399h-41q0 104 -36.5 133t-184.5 29h-12v-118q0 -154 29 -196.5t133 -42.5h24q133 0 175.5 26.5t61.5 105.5 l10 40h43l-17 -247h-651q-89 -34 -184 -34q-207 0 -353.5 140t-146.5 338zM285 444q0 -157 73 -267q90 -133 258 -133q73 0 131.5 26.5t99.5 72.5v601q-41 48 -98.5 73.5t-132.5 25.5q-166 0 -256 -133q-75 -111 -75 -266z" />
<glyph unicode="&#x178;" horiz-adv-x="1280" d="M-77 1186v43h582v-43q-77 0 -112 -16t-35 -49q0 -20 16 -51q9 -17 22 -39l293 -452l299 452q43 65 43 97q0 58 -152 58v43h478v-43q-142 0 -212 -68q-29 -27 -83 -111l-340 -512v-213q0 -154 34 -196.5t162 -42.5v-43h-554v43q128 0 162 41.5t34 197.5v199l-342 526 q-67 102 -128 140.5t-167 38.5zM408 1461q0 34 23 57t57 23t57 -23t23 -57t-23 -57t-57 -23t-57 23t-23 57zM747 1461q0 34 23.5 57t57.5 23t57 -23t23 -57t-23 -57t-57 -23t-57.5 23t-23.5 57z" />
<glyph unicode="&#x2c6;" horiz-adv-x="826" d="M51 335v44q75 0 96.5 30t21.5 135v74q0 106 -21.5 135.5t-96.5 29.5v43l210 39q3 -7 12 -42.5t12 -56.5q39 43 80 67q55 31 120 31q99 0 152 -65q48 -60 47 -161v-94q0 -108 20 -136.5t96 -28.5v-44h-351v44q73 0 94.5 30t21.5 135v86q0 73 -27.5 111.5t-98.5 38.5 q-49 0 -96 -36q-56 -43 -56 -102v-98q0 -111 16 -138t88 -27v-44h-340z" />
<glyph unicode="&#x2dc;" horiz-adv-x="1153" d="M51 335v44q75 0 96.5 30t21.5 135v74q0 106 -21.5 135.5t-96.5 29.5v43l210 39q14 -36 24 -99q39 43 79 67q53 31 109 31q65 0 102.5 -26t55.5 -77q31 39 84 68q63 34 120 35q97 0 140 -64q38 -55 37 -162v-94q0 -106 21.5 -135.5t94.5 -29.5v-44h-326v44q63 0 77.5 26.5 t14.5 138.5v86q0 73 -23.5 111.5t-82.5 38.5q-39 0 -85 -36q-55 -43 -54 -102v-98q0 -113 14.5 -139t77.5 -26v-44h-302v44q65 0 78.5 24.5t13.5 140.5v86q0 75 -22.5 112.5t-81.5 37.5q-41 0 -86 -36q-55 -44 -54 -102v-98q0 -111 14.5 -138t77.5 -27v-44h-328z" />
<glyph unicode="&#x2000;" horiz-adv-x="835" />
<glyph unicode="&#x2001;" horiz-adv-x="1671" />
<glyph unicode="&#x2002;" horiz-adv-x="835" />
<glyph unicode="&#x2003;" horiz-adv-x="1671" />
<glyph unicode="&#x2004;" horiz-adv-x="557" />
<glyph unicode="&#x2005;" horiz-adv-x="417" />
<glyph unicode="&#x2006;" horiz-adv-x="278" />
<glyph unicode="&#x2007;" horiz-adv-x="278" />
<glyph unicode="&#x2008;" horiz-adv-x="208" />
<glyph unicode="&#x2009;" horiz-adv-x="334" />
<glyph unicode="&#x200a;" horiz-adv-x="92" />
<glyph unicode="&#x2010;" horiz-adv-x="938" d="M171 408v90h597v-90h-597z" />
<glyph unicode="&#x2011;" horiz-adv-x="938" d="M171 408v90h597v-90h-597z" />
<glyph unicode="&#x2012;" horiz-adv-x="938" d="M171 408v90h597v-90h-597z" />
<glyph unicode="&#x2013;" horiz-adv-x="1075" d="M-2 408v90h1077v-90h-1077z" />
<glyph unicode="&#x2014;" horiz-adv-x="1365" d="M-2 408v90h1367v-90h-1367z" />
<glyph unicode="&#x2018;" horiz-adv-x="513" d="M154 1133q0 63 33 96.5t78 33.5q41 0 68 -29t27 -70t-27.5 -70t-67.5 -29l-18 2q9 -61 34.5 -109.5t83.5 -109.5l-24 -24q-89 56 -141 151q-46 82 -46 158z" />
<glyph unicode="&#x2019;" horiz-adv-x="513" d="M148 848q58 60 83.5 108t34.5 111l-17 -2q-41 0 -68 29t-27 70t27 70t68 29q44 0 77.5 -33.5t33.5 -96.5q0 -73 -46 -157q-53 -96 -142 -152z" />
<glyph unicode="&#x201a;" d="M85 908q0 145 76 250t184 105t182.5 -104t74.5 -251q0 -145 -75.5 -250t-181.5 -105q-108 0 -184 105t-76 250zM207 908q0 -126 34 -209t104 -83q67 0 102.5 83.5t35.5 208.5q0 128 -34 210t-104 82q-68 0 -103 -82t-35 -210z" />
<glyph unicode="&#x201c;" horiz-adv-x="855" d="M154 1133q0 63 33 96.5t78 33.5q41 0 68 -29t27 -70t-27.5 -70t-67.5 -29l-18 2q9 -61 34.5 -109.5t83.5 -109.5l-24 -24q-89 56 -141 151q-46 82 -46 158zM495 1133q0 63 33 96.5t78 33.5q41 0 68 -29t27 -70t-27 -70t-68 -29l-17 2q9 -61 34.5 -109.5t83.5 -109.5 l-24 -24q-89 56 -142 151q-46 82 -46 158z" />
<glyph unicode="&#x201d;" horiz-adv-x="855" d="M148 848q58 60 83.5 108t34.5 111l-17 -2q-41 0 -68 29t-27 70t27 70t68 29q44 0 77.5 -33.5t33.5 -96.5q0 -73 -46 -157q-53 -96 -142 -152zM490 848q58 60 83.5 108t34.5 111l-17 -2q-41 0 -68.5 29t-27.5 70t27.5 70t68.5 29q44 0 77 -33.5t33 -96.5q0 -73 -46 -157 q-53 -96 -141 -152z" />
<glyph unicode="&#x201e;" horiz-adv-x="855" d="M148 -234q58 60 83.5 108t34.5 111l-17 -2q-41 0 -68 29t-27 70t27 70t68 29q44 0 77.5 -33.5t33.5 -96.5q0 -73 -46 -157q-53 -96 -142 -152zM490 -234q58 60 83.5 108t34.5 111l-17 -2q-41 0 -68.5 29t-27.5 70t27.5 70t68.5 29q44 0 77 -33.5t33 -96.5q0 -73 -46 -157 q-53 -96 -141 -152z" />
<glyph unicode="&#x2022;" d="M87 160q0 70 48 120q38 38 107 66q-55 32 -82 65q-38 43 -37 89q0 73 65 124.5t157 51.5q90 0 156 -45.5t66 -115.5q0 -48 -41 -90q-34 -36 -96 -61q82 -38 120 -74q52 -49 52 -119q0 -85 -75 -145t-182 -60q-108 0 -183 54.5t-75 139.5zM198 154q0 -51 41 -90.5 t106 -39.5q63 0 104 39.5t41 90.5t-58 92q-24 17 -123 63q-49 -26 -77 -58q-34 -41 -34 -97zM234 517q0 -38 41 -70q26 -20 87 -51q39 20 65.5 51t26.5 70q0 38 -32.5 68.5t-76.5 30.5q-48 0 -79.5 -28t-31.5 -71z" />
<glyph unicode="&#x2026;" horiz-adv-x="1834" d="M203 82q0 41 27.5 70t68.5 29t70 -29t29 -70t-29 -70t-70 -29t-68.5 29t-27.5 70zM800 82q0 41 27.5 70t68.5 29t70 -29t29 -70t-29 -70t-70 -29t-68.5 29t-27.5 70zM1398 82q0 41 27 70t68 29t70 -29t29 -70t-29 -70t-70 -29t-68 29t-27 70z" />
<glyph unicode="&#x202f;" horiz-adv-x="334" />
<glyph unicode="&#x2039;" d="M97 1017l38 212h442v-48l-162 -193q80 -26 128.5 -83.5t48.5 -129.5q0 -90 -74 -156t-187 -66q-102 0 -167 49q-56 43 -56 91q0 38 40 37q14 0 58.5 -58t124.5 -58q70 0 106.5 47t36.5 114q0 55 -31.5 96.5t-85.5 51.5q-12 -12 -32.5 -46t-49.5 -34q-36 0 -36 36 q0 20 17 37l203 214h-177q-51 0 -84.5 -17t-43.5 -60l-11 -36h-46z" />
<glyph unicode="&#x203a;" d="M44 777v35l354 470h49v-437q44 0 67.5 21t40.5 85l8 34h43l-12 -208h-147q0 -92 21.5 -119t94.5 -27v-44h-351v44q75 0 96 26.5t21 119.5h-285zM147 845h182v242z" />
<glyph unicode="&#x205f;" horiz-adv-x="417" />
<glyph unicode="&#x2122;" d="M82 483q0 79 64 136t173 57q104 0 178.5 -55.5t74.5 -147.5q0 -65 -40 -123q-26 -38 -83 -89l-183 -162h326l-19 -99h-477v46l271 242q51 46 70 84t19 96t-38.5 94.5t-101.5 36.5q-49 0 -88.5 -34t-39.5 -85q0 -46 34 -96l-55 -51q-43 31 -64 69t-21 81z" />
<glyph unicode="&#x25fc;" horiz-adv-x="887" d="M0 0v887h887v-887h-887z" />
</font>
</defs>
</svg>
