<svg width="154" height="32" viewBox="0 0 154 32" fill="none" xmlns="http://www.w3.org/2000/svg">
<path d="M30.9523 31.4155H30.0615V26.3018H32.9928C33.8248 26.3018 35.1299 26.4094 35.1299 27.9402C35.1299 29.2253 34.2668 29.5584 32.9928 29.5584H30.9557V31.4155H30.9523ZM32.9893 28.6904C33.8214 28.6904 34.2357 28.6231 34.2357 27.9402C34.2357 27.1697 33.7074 27.1697 32.9893 27.1697H30.9523V28.6904H32.9893Z" fill="white"/>
<path d="M44.0688 31.4155H42.964L41.4517 29.3195H39.6081V31.4155H38.7173V26.3018H41.9593C43.0123 26.3018 43.9583 26.6382 43.9583 27.772C43.9583 28.9057 43.1677 29.2052 42.5496 29.3027L44.0688 31.4155ZM42.0421 28.4515C42.6291 28.4515 43.0572 28.2934 43.0572 27.7787C43.0572 27.2068 42.6705 27.1563 41.9903 27.1563H39.5977V28.4381H42.0387L42.0421 28.4515Z" fill="white"/>
<path d="M50.3938 31.5735C48.3982 31.5735 47.1829 30.3388 47.1829 28.8585C47.1829 27.3783 48.3775 26.1436 50.3938 26.1436C52.4101 26.1436 53.6081 27.3883 53.6081 28.8585C53.6081 30.3288 52.4101 31.5735 50.3938 31.5735ZM52.7139 28.8585C52.7139 27.8694 51.8404 27.0115 50.3938 27.0115C48.9471 27.0115 48.0736 27.8694 48.0736 28.8585C48.0736 29.8477 48.9437 30.7056 50.3938 30.7056C51.8438 30.7056 52.7139 29.8443 52.7139 28.8585Z" fill="white"/>
<path d="M60.3267 26.3018C61.473 26.3018 63.0025 26.7257 63.0025 28.8384C63.0025 30.6081 61.7354 31.4155 60.3267 31.4155H57.4473V26.3018H60.3267ZM60.3267 30.5475C61.29 30.5475 62.1117 30.0025 62.1117 28.8485C62.1117 27.5836 61.2486 27.1664 60.3267 27.1664H58.3415V30.5307H60.3267V30.5475Z" fill="white"/>
<path d="M71.9212 29.1951C71.9212 30.4903 71.4654 31.5736 69.387 31.5736C67.3085 31.5736 66.8528 30.487 66.8528 29.1951V26.3018H67.7435V29.1951C67.7435 30.1236 67.9265 30.7056 69.387 30.7056C70.8474 30.7056 71.0304 30.1236 71.0304 29.1951V26.3018H71.9212V29.1951Z" fill="white"/>
<path d="M81.6815 30.7833C80.9033 31.3191 79.9687 31.5963 79.0161 31.5739C77.0999 31.5739 75.7534 30.4872 75.7534 28.8488C75.7534 27.2104 77.1345 26.1574 78.8953 26.1574C79.8928 26.1491 80.8604 26.4893 81.6228 27.1162L81.1463 27.8463C80.5801 27.4795 79.9794 27.0254 78.8953 27.0254C77.5142 27.0254 76.6442 27.8732 76.6442 28.9228C76.6442 29.8211 77.4038 30.7194 79.0058 30.7194C79.8251 30.7182 80.6233 30.4664 81.2879 29.9994L81.6815 30.7833Z" fill="white"/>
<path d="M87.5197 31.4155H86.629V27.1697H84.6023V26.3018H89.5291V27.1697H87.5232V31.4155H87.5197Z" fill="white"/>
<path d="M94.0993 31.4155H93.2051V26.3018H94.0993V31.4155Z" fill="white"/>
<path d="M101.367 31.5735C99.3684 31.5735 98.1531 30.3388 98.1531 28.8585C98.1531 27.3783 99.3477 26.1436 101.367 26.1436C103.387 26.1436 104.582 27.3883 104.582 28.8585C104.582 30.3288 103.384 31.5735 101.367 31.5735ZM103.688 28.8585C103.688 27.8694 102.818 27.0115 101.367 27.0115C99.9173 27.0115 99.0473 27.8694 99.0473 28.8585C99.0473 29.8477 99.9208 30.7056 101.367 30.7056C102.814 30.7056 103.688 29.8443 103.688 28.8585Z" fill="white"/>
<path d="M113.684 31.4155H112.793L109.509 27.6138V31.4155H108.619V26.3018H109.509L112.789 30.0933V26.3018H113.68V31.4155H113.684Z" fill="white"/>
<path d="M122.256 27.604C121.609 27.2014 120.854 26.9953 120.087 27.0119C119.114 27.0119 118.617 27.2575 118.617 27.6847C118.617 28.1793 118.8 28.3374 120.308 28.3374C122.68 28.3374 122.953 29.0372 122.953 29.8379C122.953 31.3081 121.544 31.5638 120.367 31.5638C119.271 31.6107 118.189 31.3058 117.287 30.6958L117.712 29.9355C118.493 30.4705 119.434 30.7379 120.388 30.6958C121.33 30.6958 121.99 30.4973 121.99 29.9254C121.99 29.2727 121.645 29.2525 119.68 29.2054C118.485 29.1852 117.653 28.8488 117.653 27.7823C117.653 26.9244 118.313 26.1338 120.07 26.1338C120.979 26.1473 121.871 26.3784 122.666 26.8067L122.256 27.604Z" fill="white"/>
<path d="M11.4833 4.2891C11.4833 6.45908 9.66031 8.21188 6.32858 8.21188H4.19488V11.1321C4.19488 13.4669 4.48145 13.8673 6.47013 13.8673V14.3585H0V13.8673C1.98869 13.8673 2.2787 13.4703 2.2787 11.1321V3.54223C2.2787 1.2074 1.99214 0.833962 0 0.833962V0.342773H6.32858C9.66031 0.342773 11.4833 2.11913 11.4833 4.2891ZM9.34958 4.2891C9.34958 2.60695 8.38977 1.2074 6.30786 1.2074H4.19488V7.37081H6.30441C8.38977 7.37081 9.34958 5.99481 9.34958 4.2891Z" fill="white"/>
<path d="M17.7356 14.3551V13.8673C19.7243 13.8673 20.0108 13.4703 20.0108 11.1321V3.54223C20.0108 1.2074 19.7243 0.833962 17.7356 0.833962V0.342773H24.2057V0.823869C22.217 0.823869 21.927 1.19731 21.927 3.53213V11.1321C21.927 13.4669 22.2136 13.8673 24.2057 13.8673V14.3585H17.7356V14.3551Z" fill="white"/>
<path d="M43.4059 3.54223C43.4059 1.2074 43.1194 0.833962 41.1307 0.833962V0.342773H46.5961V0.823869C44.6074 0.823869 44.2932 1.19731 44.2932 3.53213V14.7521H43.7408L33.9873 3.00394V11.1321C33.9873 13.4669 34.298 13.8673 36.2867 13.8673V14.3585H30.8213V13.8673C32.81 13.8673 33.0965 13.4703 33.0965 11.1321V3.54223C33.0965 1.2074 32.81 0.833962 30.8213 0.833962V0.342773H34.2014L43.4059 11.445V3.54223Z" fill="white"/>
<path d="M52.9761 13.8673C54.9648 13.8673 55.2548 13.4703 55.2548 11.1321V3.54223C55.2548 1.2074 54.9682 0.833962 52.9761 0.833962V0.342773H63.9208L64.1383 3.42448H63.6342L63.5133 2.95684C63.1681 1.74232 62.9368 1.20404 60.734 1.20404H57.1848V6.50955H58.3828C60.7789 6.50955 61.1621 6.23031 61.1621 4.26555H61.6662V9.6148H61.1621C61.1621 7.65341 60.7789 7.37081 58.3828 7.37081H57.1848V10.7822C57.1848 13.117 57.4713 13.4905 59.46 13.4905H61.5316C63.7378 13.4905 64.0002 12.9522 64.3109 11.7141L64.4248 11.2532H64.9289L64.739 14.3585H52.9761V13.8673Z" fill="white"/>
<path d="M73.2254 10.2174C72.742 11.2772 73.1253 11.7111 74.7998 11.7111V12.125H70.0767V11.7111C71.7719 11.7111 71.872 11.3747 72.4935 10.0021L76.93 0H77.1924L81.6497 10.0021C82.2746 11.3781 82.3747 11.7111 84.0492 11.7111V12.125H78.4699V11.7111C80.1444 11.7111 80.5414 11.2973 80.0408 10.2174L79.0741 8.03733H74.1921L73.2254 10.2174ZM76.6124 2.57369L74.5132 7.31064H78.7288L76.6124 2.57369Z" fill="white"/>
<path d="M99.7137 4.2891C99.7137 6.45908 97.8942 8.21188 94.559 8.21188H92.4253V11.1321C92.4253 13.4669 92.7119 13.8673 94.7006 13.8673V14.3585H88.2339V13.8673C90.2226 13.8673 90.5126 13.4703 90.5126 11.1321V3.54223C90.5126 1.2074 90.226 0.833962 88.2339 0.833962V0.342773H94.5625C97.8942 0.342773 99.7137 2.11913 99.7137 4.2891ZM97.58 4.2891C97.58 2.60695 96.6202 1.2074 94.5348 1.2074H92.4253V7.37081H94.5348C96.6237 7.37081 97.58 5.99481 97.58 4.2891Z" fill="white"/>
<path d="M117.449 4.2891C117.449 6.45908 115.626 8.21188 112.295 8.21188H110.161V11.1321C110.161 13.4669 110.448 13.8673 112.436 13.8673V14.3585H105.966V13.8673C107.955 13.8673 108.245 13.4703 108.245 11.1321V3.54223C108.245 1.2074 107.958 0.833962 105.966 0.833962V0.342773H112.295C115.626 0.342773 117.449 2.11913 117.449 4.2891ZM115.316 4.2891C115.316 2.60695 114.356 1.2074 112.27 1.2074H110.161V7.37081H112.27C114.356 7.37081 115.316 5.99481 115.316 4.2891Z" fill="white"/>
<path d="M123.702 13.8673C125.691 13.8673 125.977 13.4703 125.977 11.1321V3.54223C125.977 1.2074 125.691 0.833962 123.702 0.833962V0.342773H130.175V0.823869C128.187 0.823869 127.9 1.19731 127.9 3.53213V10.7822C127.9 13.117 128.187 13.4905 130.175 13.4905H133.051C135.234 13.4905 135.496 12.9522 135.814 11.7141L135.927 11.2532H136.432L136.242 14.3585H123.702V13.8673Z" fill="white"/>
<path d="M141.08 13.8673C143.068 13.8673 143.358 13.4703 143.358 11.1321V3.54223C143.358 1.2074 143.072 0.833962 141.08 0.833962V0.342773H152.01L152.228 3.42448H151.72L151.6 2.95684C151.254 1.74232 151.023 1.20404 148.82 1.20404H145.274V6.50955H146.473C148.869 6.50955 149.252 6.23031 149.252 4.26555H149.756V9.6148H149.252C149.252 7.65341 148.869 7.37081 146.473 7.37081H145.274V10.7822C145.274 13.117 145.561 13.4905 147.55 13.4905H149.621C151.827 13.4905 152.09 12.9522 152.401 11.7141L152.511 11.2532H153.015L152.825 14.3585H141.087V13.8673H141.08Z" fill="white"/>
<path d="M84.0802 14.1572H70.0386V14.5609H84.0802V14.1572Z" fill="white"/>
</svg>
